<svg width="226" height="628" viewBox="0 0 226 628" fill="none" xmlns="http://www.w3.org/2000/svg">
<path fill-rule="evenodd" clip-rule="evenodd" d="M120.75 0C81.1401 0 72.9401 37.63 72.9201 51.45C72.9201 64.62 75.4901 66.63 75.4001 79.98C75.3401 90.12 72.4001 97.22 72.6701 102.98C74.2301 132.98 114.79 141.63 126.37 141.8C137.95 141.97 188.37 132.21 188.37 108.89C188.37 92.62 178.02 66.6 178.3 48.53C178.92 11 147.54 0 120.75 0Z" fill="black"/>
<path fill-rule="evenodd" clip-rule="evenodd" d="M185.08 410.5L184.84 674.23L118.72 672.79L117.72 660.58L75.0801 666.33L48.0201 391.33L62.6301 320.91L159.2 318.27L185.08 410.5Z" fill="#3B4161"/>
<path fill-rule="evenodd" clip-rule="evenodd" d="M107.18 522.56L67.53 589.19L75.06 665.63L117.77 660.63L107.18 522.56Z" fill="#15192C"/>
<path fill-rule="evenodd" clip-rule="evenodd" d="M135 342H64.7599L55.2499 238.23L67.9399 158.71L91.9399 135.6L116 124.86L159.45 131.5L135 342Z" fill="#F7D167"/>
<path d="M162.62 673.75L162.16 393.22" stroke="#737999" stroke-width="1.7" stroke-linecap="round" stroke-linejoin="round"/>
<path fill-rule="evenodd" clip-rule="evenodd" d="M147.07 123.58C163.49 124.03 212.52 141.83 219.68 159.89C225.12 173.59 228.85 297.55 216.07 303.6C215.25 303.997 214.392 304.312 213.51 304.54C214.28 308.34 221.64 396.33 219.77 403.65C217.9 410.97 212.99 422.05 205.88 421.65C178.37 420 127.83 383.89 122.81 378C122.04 366.84 119.91 324.92 119.91 324.92L124.29 200.54L149.36 132C149.36 132 130.65 123.13 147.07 123.58Z" fill="white"/>
<path fill-rule="evenodd" clip-rule="evenodd" d="M111.29 122.8C83.06 126.31 43.2101 148.2 38.0801 158.17C33.7601 166.55 35.95 275.04 35.95 275.04C35.95 275.04 51.9501 296.99 44.7401 328.56C38.1201 357.68 36.1601 396.99 43.1001 404.34C54.5401 398.55 69.25 375.34 71.9 369.62C74.55 363.9 75.24 331.54 77.28 324.62C79.32 317.7 88.45 195.19 88.45 195.19C88.45 195.19 92.71 145.7 111.29 122.8Z" fill="white"/>
<path d="M182.36 133.22C168.15 159.13 139.36 188.66 124.52 199.93" stroke="#C9C9C9" stroke-width="2" stroke-linecap="round" stroke-linejoin="round"/>
<path d="M97 125.77C84.35 142.83 81.09 171.82 91 201.26" stroke="#C9C9C9" stroke-width="2" stroke-linecap="round" stroke-linejoin="round"/>
<path d="M168 205.6C168 203.373 167.339 201.195 166.102 199.343C164.864 197.491 163.105 196.048 161.047 195.196C158.989 194.344 156.724 194.122 154.54 194.557C152.355 194.992 150.349 196.066 148.774 197.641C147.2 199.217 146.128 201.224 145.695 203.409C145.262 205.594 145.486 207.859 146.34 209.916C147.194 211.973 148.639 213.731 150.492 214.967C152.345 216.203 154.523 216.862 156.75 216.86C159.735 216.857 162.596 215.67 164.706 213.558C166.815 211.447 168 208.585 168 205.6V205.6Z" stroke="#353823" stroke-width="3.41" stroke-linecap="round" stroke-linejoin="round"/>
<path fill-rule="evenodd" clip-rule="evenodd" d="M162.52 205.6C162.52 204.463 162.183 203.351 161.551 202.405C160.919 201.46 160.021 200.723 158.97 200.288C157.92 199.852 156.764 199.739 155.648 199.96C154.533 200.182 153.508 200.73 152.704 201.534C151.9 202.338 151.352 203.363 151.13 204.478C150.909 205.594 151.023 206.75 151.458 207.8C151.893 208.851 152.63 209.749 153.575 210.381C154.521 211.013 155.633 211.35 156.77 211.35C158.295 211.35 159.758 210.744 160.836 209.666C161.914 208.588 162.52 207.125 162.52 205.6V205.6Z" fill="#353823"/>
<path d="M159.79 194.75C167.39 166.84 167.88 128 148.26 121" stroke="#353823" stroke-width="3.41" stroke-linecap="round" stroke-linejoin="round"/>
<path d="M114 116.25C102.81 120.99 92.15 142.85 89.65 161.57" stroke="#353823" stroke-width="3.41" stroke-linecap="round" stroke-linejoin="round"/>
<path d="M101.73 196.73C105.31 179.43 99.91 163.73 89.67 161.57C79.43 159.41 68.22 171.75 64.67 189.05C61.12 206.35 66.49 222.05 76.73 224.2C86.97 226.35 98.15 214 101.73 196.73Z" stroke="#353823" stroke-width="3.41" stroke-linecap="round" stroke-linejoin="round"/>
<path d="M171.37 169.52L175.69 253.63" stroke="#C9C9C9" stroke-width="2" stroke-linecap="round" stroke-linejoin="round"/>
<path d="M183.53 172L172.3 187.66" stroke="#C9C9C9" stroke-width="2" stroke-linecap="round" stroke-linejoin="round"/>
<path fill-rule="evenodd" clip-rule="evenodd" d="M146 246.94L189.18 257.27Z" fill="#606060"/>
<path d="M146 246.94L189.18 257.27" stroke="#C9C9C9" stroke-width="2" stroke-linecap="round" stroke-linejoin="round"/>
<path d="M187 245.72L176 254.12" stroke="#C9C9C9" stroke-width="2" stroke-linecap="round" stroke-linejoin="round"/>
<path d="M144.36 295.65C162.52 302.96 205.66 311.7 213.81 304.46C224.71 294.77 227.81 194.76 222.34 168.23C219.15 152.79 203.04 142.85 194.64 138.85" stroke="#C9C9C9" stroke-width="2" stroke-linecap="round" stroke-linejoin="round"/>
<path d="M157.34 299.93C162.52 293.36 164.5 260.6 162 250.77" stroke="#C9C9C9" stroke-width="2" stroke-linecap="round" stroke-linejoin="round"/>
<path fill-rule="evenodd" clip-rule="evenodd" d="M156.77 257.17C156.772 256.647 156.619 256.136 156.33 255.701C156.041 255.265 155.629 254.925 155.147 254.724C154.665 254.522 154.134 254.469 153.621 254.57C153.108 254.67 152.637 254.921 152.267 255.29C151.897 255.659 151.644 256.129 151.541 256.641C151.439 257.154 151.49 257.685 151.69 258.168C151.89 258.651 152.228 259.064 152.662 259.354C153.097 259.645 153.607 259.8 154.13 259.8C154.476 259.801 154.819 259.734 155.14 259.603C155.46 259.471 155.751 259.278 155.996 259.033C156.241 258.789 156.436 258.498 156.569 258.179C156.702 257.859 156.77 257.516 156.77 257.17V257.17Z" fill="#C9C9C9"/>
<path d="M161.58 337.47C167.322 339.687 173.425 340.823 179.58 340.82C184.147 340.776 188.687 340.103 193.07 338.82C193.399 340.088 193.577 341.39 193.6 342.7V363.59C193.6 367.966 191.862 372.163 188.767 375.257C185.673 378.352 181.476 380.09 177.1 380.09C172.724 380.09 168.527 378.352 165.433 375.257C162.338 372.163 160.6 367.966 160.6 363.59V342.68C160.642 340.902 160.973 339.142 161.58 337.47Z" stroke="#C9C9C9" stroke-width="2" stroke-linecap="round" stroke-linejoin="round"/>
<path fill-rule="evenodd" clip-rule="evenodd" d="M97.58 190.52H11.3499C6.11993 190.52 2.99993 194.61 4.34993 199.65L37.6399 322.11C38.4521 324.685 40.0419 326.945 42.1906 328.58C44.3394 330.215 46.9417 331.144 49.6399 331.24H135.82C141.04 331.24 144.17 327.15 142.82 322.11L109.54 199.65C108.731 197.081 107.148 194.824 105.007 193.19C102.866 191.555 100.272 190.623 97.58 190.52V190.52Z" fill="#6367FD"/>
<path fill-rule="evenodd" clip-rule="evenodd" d="M73.7801 184.22H24.8402C24.2968 184.175 23.7508 184.268 23.253 184.49C22.7553 184.713 22.322 185.058 21.9935 185.493C21.6651 185.929 21.4522 186.44 21.3747 186.98C21.2971 187.519 21.3575 188.07 21.5502 188.58L23.9302 196.9C24.3334 198.13 25.1034 199.207 26.1366 199.986C27.1698 200.766 28.4169 201.21 29.7102 201.26H78.6501C79.1928 201.303 79.7374 201.208 80.2337 200.984C80.73 200.761 81.162 200.416 81.4898 199.982C81.8177 199.547 82.0308 199.037 82.1095 198.498C82.1882 197.96 82.13 197.41 81.9401 196.9L79.5601 188.58C79.1544 187.352 78.3838 186.276 77.3511 185.497C76.3184 184.718 75.0727 184.273 73.7801 184.22Z" fill="#3B4161"/>
<path fill-rule="evenodd" clip-rule="evenodd" d="M146.25 252.94C142.437 250.735 138.389 248.967 134.18 247.67C128.11 242.67 123.65 222.92 122.04 221.67C120.43 220.42 115.04 221.23 114.88 223.1C114.18 229.95 114.55 237.95 120.62 245.1C102.96 233.87 101.62 228.89 96.7599 232.65C91.8999 236.41 90.1499 254.75 94.3199 262.33C105.8 283.25 136 286.08 145.24 286.22C147.54 276.27 147.54 264.24 146.25 252.94Z" fill="#F77F89"/>
<path d="M96.8299 386.65L117.69 660.59" stroke="#737999" stroke-width="1.7" stroke-linecap="round" stroke-linejoin="round"/>
<path d="M61.4101 527.42C64.0492 527.685 66.7141 527.361 69.2128 526.471C71.7116 525.582 73.9818 524.149 75.86 522.276C77.7381 520.403 79.1774 518.137 80.074 515.641C80.9707 513.145 81.3023 510.481 81.0451 507.841C80.7879 505.201 79.9483 502.651 78.5867 500.375C77.2251 498.099 75.3755 496.153 73.1711 494.678C70.9668 493.203 68.4627 492.235 65.8393 491.845C63.2158 491.454 60.5385 491.651 58.0001 492.42" stroke="#737999" stroke-width="1.7" stroke-linecap="round" stroke-linejoin="round"/>
<path d="M108.35 539.69C113.497 539.406 118.329 537.126 121.82 533.334C125.311 529.542 127.185 524.537 127.043 519.385C126.901 514.232 124.755 509.339 121.06 505.745C117.365 502.151 112.414 500.14 107.26 500.14C106.593 500.14 105.963 500.17 105.37 500.23" stroke="#737999" stroke-width="1.7" stroke-linecap="round" stroke-linejoin="round"/>
<path d="M93.6501 238.09L109.1 250.46" stroke="#A7464F" stroke-width="3.41" stroke-linecap="round" stroke-linejoin="round"/>
<path d="M92.0001 250.89L111.62 266.49" stroke="#A7464F" stroke-width="3.41" stroke-linecap="round" stroke-linejoin="round"/>
<path fill-rule="evenodd" clip-rule="evenodd" d="M5.83992 250.3C6.07992 246.18 4.83992 237.03 1.17991 228.3C-0.160089 225.14 -0.240081 219.94 4.46992 219.94C9.82993 219.94 16.9999 230.7 13.4699 243.51C9.93993 256.32 5.48992 256.12 5.83992 250.3Z" fill="#F77F89"/>
<path fill-rule="evenodd" clip-rule="evenodd" d="M22.4401 226.09C18.1801 226.09 5.23012 251.71 5.32012 254.82C5.41012 257.93 6.76012 262.66 8.77012 262.42C10.7801 262.18 27.6001 240.77 27.6001 233.5C27.6001 229.29 25.5501 226.09 22.4401 226.09Z" fill="#F77F89"/>
<path fill-rule="evenodd" clip-rule="evenodd" d="M28.0001 240.81C22.6901 240.81 8.69009 261.23 8.59009 263.57C8.49009 265.91 11.3201 268.06 13.6601 268.16C16.0001 268.26 32.7301 254.54 32.7301 248.16C32.7601 244.26 31.0001 240.81 28.0001 240.81Z" fill="#F77F89"/>
<path fill-rule="evenodd" clip-rule="evenodd" d="M23.1 279C20.8 278.89 14.4 273.17 14.4 268.67C14.4 266.9 18.87 262.32 21.11 262.46C23.35 262.6 27.92 271.21 27.83 273.4C27.74 275.59 26.11 279.11 23.1 279Z" fill="#F77F89"/>
<path d="M14.3999 235.56C9.80991 243.2 5.26993 252.98 5.31993 254.82" stroke="#A7464F" stroke-width="3.41" stroke-linecap="round" stroke-linejoin="round"/>
<path d="M24.79 242.31C18.47 247.07 8.70004 261.62 8.62004 263.57" stroke="#A94B53" stroke-width="3.41" stroke-linecap="round" stroke-linejoin="round"/>
<path fill-rule="evenodd" clip-rule="evenodd" d="M162.94 58.49C162.94 35.6 144.63 17 122 17C99.3699 17 81.0999 35.56 81.0999 58.45C81.0999 81.34 99.4499 99.94 122 99.94C144.55 99.94 162.94 81.39 162.94 58.49Z" fill="#F77F89"/>
<path fill-rule="evenodd" clip-rule="evenodd" d="M128.06 61.48C127.62 58.84 126.06 56.89 124.5 57.15C122.94 57.41 122.08 59.75 122.5 62.39C122.92 65.03 124.5 66.98 126.06 66.73C127.62 66.48 128.49 64.13 128.06 61.48Z" fill="#B5545C"/>
<path fill-rule="evenodd" clip-rule="evenodd" d="M97.25 63.46C96.84 60.99 95.36 59.17 93.93 59.41C92.5 59.65 91.67 61.84 92.07 64.31C92.47 66.78 93.97 68.59 95.4 68.31C96.83 68.03 97.66 65.93 97.25 63.46Z" fill="#B5545C"/>
<path fill-rule="evenodd" clip-rule="evenodd" d="M156.69 76.74C154.26 83.5 148.15 118.63 149.69 131.39C143.29 141.09 114.77 138.39 106.27 130.18C110.5 118.37 110.66 109.9 109.11 99.94C107.64 90.62 159.12 70 156.69 76.74Z" fill="#F77F89"/>
<path fill-rule="evenodd" clip-rule="evenodd" d="M105.81 15.9999C105.46 25.8499 114.45 35.2599 138.89 39.9299C136.21 46.8399 135.99 57.2299 149.34 59.0999C164.91 61.2599 166.18 41.3699 166.18 41.3699L142.86 13.8199C142.86 13.8199 106.15 6.12992 105.81 15.9999Z" fill="black"/>
<path fill-rule="evenodd" clip-rule="evenodd" d="M113.15 9.07005C114.15 17.82 104.08 39.07 80.76 39.65C64.18 39.65 112.18 0.310053 113.15 9.07005Z" fill="black"/>
<path fill-rule="evenodd" clip-rule="evenodd" d="M140.2 98.47C142.44 95.64 139.2 82.74 135.67 76.83C131.41 74.32 116.3 76.41 108.51 69.71C106.22 67.71 104.99 69.19 103.21 71.38C100.08 75.22 90.6701 77.21 87.1501 79.38C86.6301 84.98 91.7701 97.8 93.9901 100.67C97.4701 105.22 129.28 105.63 140.2 98.47Z" fill="white"/>
<path d="M133.61 78C135.67 74.56 144.67 59.17 147.54 55.27" stroke="white" stroke-width="3.41" stroke-linecap="round" stroke-linejoin="round"/>
<path d="M138.43 97.65C144.52 97.65 159 78.6 160.65 72.21" stroke="white" stroke-width="3.41" stroke-linecap="round" stroke-linejoin="round"/>
<path fill-rule="evenodd" clip-rule="evenodd" d="M169.94 61.89C169.94 59.2535 169.158 56.6763 167.693 54.4842C166.229 52.2921 164.147 50.5836 161.711 49.5747C159.275 48.5657 156.595 48.3018 154.009 48.8161C151.424 49.3304 149.048 50.6 147.184 52.4642C145.32 54.3285 144.05 56.7037 143.536 59.2894C143.022 61.8752 143.286 64.5554 144.295 66.9911C145.304 69.4269 147.012 71.5087 149.204 72.9735C151.396 74.4382 153.974 75.22 156.61 75.22C160.145 75.22 163.536 73.8156 166.036 71.3157C168.536 68.8158 169.94 65.4253 169.94 61.89V61.89Z" fill="#F77F89"/>
<path d="M121.31 351.64L74.6101 350.18" stroke="#737999" stroke-width="1.7" stroke-linecap="round" stroke-linejoin="round"/>
<path d="M193.51 419.2C208.51 425.48 219.77 414.29 219.86 403.2C219.95 392.11 215.56 325.94 214.96 319.34" stroke="#C9C9C9" stroke-width="2" stroke-linecap="round" stroke-linejoin="round"/>
<path d="M36.18 174C35.4 151.36 59.24 141 69.05 136.56" stroke="#C9C9C9" stroke-width="2" stroke-linecap="round" stroke-linejoin="round"/>
<path d="M40.84 400C38.97 387.93 38.84 355.27 42 342.81" stroke="#C9C9C9" stroke-width="2" stroke-linecap="round" stroke-linejoin="round"/>
</svg>
