<svg id="Layer_1" data-name="Layer 1" xmlns="http://www.w3.org/2000/svg" viewBox="0 0 204 204"><defs><style>.cls-1{fill:#00bfd8;}.cls-2{fill:#c5e0e2;}</style></defs><title>asset web</title><circle class="cls-1" cx="102.23" cy="103.39" r="68.52"/><ellipse class="cls-1" cx="101.77" cy="11.24" rx="19.3" ry="5.24"/><ellipse class="cls-1" cx="102.23" cy="192.76" rx="19.3" ry="5.24"/><rect class="cls-1" x="100.04" y="14.01" width="4.38" height="178.75"/><ellipse class="cls-1" cx="61.86" cy="32.88" rx="17" ry="4.61" transform="translate(-8.15 35.33) rotate(-30)"/><ellipse class="cls-1" cx="142.14" cy="171.12" rx="17" ry="4.61" transform="translate(-66.52 94) rotate(-30)"/><rect class="cls-1" x="100.6" y="24.25" width="4.38" height="157.42" transform="translate(-37.71 65.19) rotate(-30)"/><ellipse class="cls-1" cx="23.28" cy="56.82" rx="19.3" ry="5.24" transform="translate(-37.56 48.57) rotate(-60)"/><ellipse class="cls-1" cx="180.72" cy="147.18" rx="19.3" ry="5.24" transform="translate(-37.1 230.1) rotate(-60)"/><rect class="cls-1" x="101.13" y="13.12" width="4.38" height="178.75" transform="translate(-37.11 140.72) rotate(-60)"/><ellipse class="cls-1" cx="22.07" cy="102.2" rx="4.61" ry="17"/><ellipse class="cls-1" cx="181.93" cy="101.8" rx="4.61" ry="17"/><rect class="cls-1" x="24.51" y="99.61" width="157.42" height="4.38"/><ellipse class="cls-1" cx="23.51" cy="147.58" rx="5.24" ry="19.3" transform="translate(-70.64 31.53) rotate(-30)"/><ellipse class="cls-1" cx="180.49" cy="56.42" rx="5.24" ry="19.3" transform="translate(-4.03 97.8) rotate(-30)"/><rect class="cls-1" x="13.71" y="98.92" width="178.75" height="4.38" transform="matrix(0.87, -0.5, 0.5, 0.87, -36.76, 65.14)"/><ellipse class="cls-1" cx="62.21" cy="171.33" rx="4.61" ry="17" transform="translate(-117.27 139.54) rotate(-60)"/><ellipse class="cls-1" cx="141.79" cy="32.67" rx="4.61" ry="17" transform="translate(42.6 139.13) rotate(-60)"/><rect class="cls-1" x="23.72" y="98.65" width="157.42" height="4.38" transform="translate(-36.13 139.08) rotate(-59.98)"/><circle class="cls-2" cx="68.05" cy="85.74" r="8.97"/><circle class="cls-2" cx="97.75" cy="71.83" r="15.19"/><circle class="cls-2" cx="137.7" cy="89.59" r="8.52"/><circle class="cls-2" cx="127.22" cy="115.86" r="14.29"/><circle class="cls-2" cx="90.69" cy="117.65" r="4.9"/><circle class="cls-2" cx="65.16" cy="137.79" r="9.08"/><circle class="cls-2" cx="96.89" cy="158.11" r="6.2"/><circle class="cls-2" cx="124.25" cy="151.5" r="6.37"/><circle class="cls-2" cx="158.8" cy="119.2" r="3.34"/><circle class="cls-2" cx="50.07" cy="108.1" r="7.76"/><circle class="cls-2" cx="67.21" cy="60.18" r="3.54"/><circle class="cls-2" cx="97.64" cy="96.14" r="4.2"/><circle class="cls-2" cx="130.61" cy="62.38" r="9.45"/><circle class="cls-2" cx="97.35" cy="48.21" r="5.75"/><circle class="cls-2" cx="102.73" cy="139.95" r="7.14"/><circle class="cls-2" cx="144.58" cy="141.46" r="3.67"/><circle class="cls-2" cx="48.47" cy="85.17" r="4.11"/><circle class="cls-2" cx="157.61" cy="84.04" r="2.98"/><circle class="cls-2" cx="50.07" cy="140.13" r="2.34"/></svg>