<svg id="Layer_1" data-name="Layer 1" xmlns="http://www.w3.org/2000/svg" viewBox="0 0 60 44"><defs><style>.cls-1{fill:#eaeaea;}.cls-2,.cls-4{fill:none;stroke-miterlimit:10;stroke-width:2.5px;}.cls-2{stroke:#70a130;}.cls-3{fill:#70a130;}.cls-4{stroke:#939393;}</style></defs><title>icon-CORONA</title><path class="cls-1" d="M21.47,14.58l-1.74-1a3.64,3.64,0,0,1-1.54-1.79l-.39-1a2.16,2.16,0,0,0-3.66-.61,12,12,0,0,0-2.31,4A2.16,2.16,0,0,0,14.19,17l1.06-.15a3.55,3.55,0,0,1,2.32.44l1.89,1.09A11,11,0,0,0,19,21.62a11.14,11.14,0,0,0,.76,4.06l-1.74,1a3.53,3.53,0,0,1-2.31.44L14.62,27a2.17,2.17,0,0,0-2.37,2.86,12.33,12.33,0,0,0,2.32,4,2.17,2.17,0,0,0,3.67-.61l.39-1a3.57,3.57,0,0,1,1.53-1.79l1.9-1.09a11.12,11.12,0,0,0,6.43,3.38v2A3.6,3.6,0,0,1,27.71,37L27,37.8a2.16,2.16,0,0,0,1.29,3.47,11.64,11.64,0,0,0,4.63,0,2.16,2.16,0,0,0,1.3-3.47L33.59,37a3.6,3.6,0,0,1-.78-2.23V32.55A11.31,11.31,0,0,0,39,28.67l1.73,1a3.59,3.59,0,0,1,1.54,1.79l.39,1a2.17,2.17,0,0,0,3.67.62,12.13,12.13,0,0,0,2.31-4,2.17,2.17,0,0,0-2.36-2.87l-1.07.16a3.59,3.59,0,0,1-2.31-.44L41,24.84a11.11,11.11,0,0,0-.28-7.27l1.73-1a3.5,3.5,0,0,1,2.32-.44l1.06.16a2.16,2.16,0,0,0,2.37-2.86,12,12,0,0,0-2.31-4A2.17,2.17,0,0,0,42.2,10l-.39,1a3.51,3.51,0,0,1-1.54,1.79l-1.89,1.09A11.27,11.27,0,0,0,32,10.53v-2a3.57,3.57,0,0,1,.78-2.24l.67-.83A2.17,2.17,0,0,0,32.1,2a12.17,12.17,0,0,0-4.62,0,2.16,2.16,0,0,0-1.3,3.48l.66.83a3.57,3.57,0,0,1,.78,2.24v2.17A11.28,11.28,0,0,0,21.47,14.58Z"/><path class="cls-2" d="M21.47,14.58l-1.74-1a3.64,3.64,0,0,1-1.54-1.79l-.39-1a2.16,2.16,0,0,0-3.66-.61,12,12,0,0,0-2.31,4A2.16,2.16,0,0,0,14.19,17l1.06-.15a3.55,3.55,0,0,1,2.32.44l1.89,1.09A11,11,0,0,0,19,21.62a11.14,11.14,0,0,0,.76,4.06l-1.74,1a3.53,3.53,0,0,1-2.31.44L14.62,27a2.17,2.17,0,0,0-2.37,2.86,12.33,12.33,0,0,0,2.32,4,2.17,2.17,0,0,0,3.67-.61l.39-1a3.57,3.57,0,0,1,1.53-1.79l1.9-1.09a11.12,11.12,0,0,0,6.43,3.38v2A3.6,3.6,0,0,1,27.71,37L27,37.8a2.16,2.16,0,0,0,1.29,3.47,11.64,11.64,0,0,0,4.63,0,2.16,2.16,0,0,0,1.3-3.47L33.59,37a3.6,3.6,0,0,1-.78-2.23V32.55A11.31,11.31,0,0,0,39,28.67l1.73,1a3.59,3.59,0,0,1,1.54,1.79l.39,1a2.17,2.17,0,0,0,3.67.62,12.13,12.13,0,0,0,2.31-4,2.17,2.17,0,0,0-2.36-2.87l-1.07.16a3.59,3.59,0,0,1-2.31-.44L41,24.84a11.11,11.11,0,0,0-.28-7.27l1.73-1a3.5,3.5,0,0,1,2.32-.44l1.06.16a2.16,2.16,0,0,0,2.37-2.86,12,12,0,0,0-2.31-4A2.17,2.17,0,0,0,42.2,10l-.39,1a3.51,3.51,0,0,1-1.54,1.79l-1.89,1.09A11.27,11.27,0,0,0,32,10.53v-2a3.57,3.57,0,0,1,.78-2.24l.67-.83A2.17,2.17,0,0,0,32.1,2a12.17,12.17,0,0,0-4.62,0,2.16,2.16,0,0,0-1.3,3.48l.66.83a3.57,3.57,0,0,1,.78,2.24v2.17A11.28,11.28,0,0,0,21.47,14.58Z"/><circle class="cls-3" cx="32.81" cy="25.08" r="2.59"/><circle class="cls-3" cx="27.62" cy="18.17" r="2.59"/><line class="cls-4" x1="34.54" y1="17.3" x2="36.27" y2="17.3"/><line class="cls-4" x1="24.17" y1="25.95" x2="25.9" y2="25.95"/></svg>