<svg width="565" height="402" viewBox="0 0 565 402" fill="none" xmlns="http://www.w3.org/2000/svg">
<path d="M448.563 226.761C448.581 240.448 446.512 254.062 442.423 267.163C439.674 276.03 436.006 284.604 431.473 292.756V292.756C414.701 322.954 387.051 346.134 353.778 357.891C320.506 369.647 283.93 369.161 251.003 356.524C248.643 355.624 246.333 354.647 244.003 353.621C218.697 342.357 197.3 324.244 182.395 301.468C167.49 278.692 159.715 252.227 160.008 225.268C160.301 198.309 168.649 172.008 184.046 149.54C199.442 127.073 221.228 109.399 246.773 98.6534C252.327 96.3007 258.032 94.2993 263.853 92.6618V92.6618C276.996 88.9635 290.616 87.0959 304.303 87.1154C308.65 87.1154 312.943 87.3026 317.183 87.6769C351.206 90.6236 383.045 105.16 407.033 128.699C431.022 152.237 445.604 183.251 448.183 216.22C448.433 219.705 448.563 223.209 448.563 226.761Z" fill="#93C1F7"/>
<path d="M328.304 109.843C326.054 112.273 322.114 114.683 319.304 116.503C315.904 118.709 312.054 119.145 309.974 122.639C306.824 127.924 309.454 140.421 301.334 141.582C294.744 142.55 287.534 133.355 284.694 128.573C281.304 122.765 285.474 118.797 284.014 113.27C283.274 110.511 281.144 110.366 279.364 108.285C277.914 106.6 277.364 104.413 276.144 102.477C274.823 100.253 272.744 98.5417 270.264 97.6372C268.794 97.0274 264.114 96.5724 263.484 94.7333C263.353 94.3977 263.322 94.0335 263.392 93.6815C263.463 93.3294 263.633 93.0032 263.884 92.7393C277.013 89.0175 290.623 87.1239 304.304 87.1155C308.651 87.1155 312.944 87.3027 317.184 87.677C318.474 88.5771 320.104 89.1482 321.184 90.2033C324.894 93.9106 320.564 95.256 320.454 98.9149C320.304 104.761 335.654 101.945 328.304 109.843Z" fill="#307AE9"/>
<path d="M413.793 202.059C412.583 206.028 418.473 212.049 420.863 214.498C424.273 217.943 424.323 221.564 427.053 225.222C430.793 230.227 446.483 223.035 442.533 233.131C440.113 239.316 434.833 243.294 429.963 247.417C426.483 250.379 422.133 255.248 423.773 259.943C425.413 264.637 428.873 266.244 424.323 271.084C422.323 273.175 415.973 274.956 415.043 277.395C414.513 278.779 415.863 280.792 415.773 282.235C415.643 284.296 414.433 285.855 413.443 287.597C411.443 291.082 409.283 295.447 406.243 298.128C403.203 300.809 396.573 302.968 392.483 301.913C387.113 300.568 386.853 295.486 386.173 291.178C385.333 285.855 382.823 284.112 379.593 279.979C375.593 274.868 376.693 271.626 377.903 265.992C378.903 261.153 378.903 257.465 376.613 253.022C374.513 248.908 372.813 246.73 372.823 241.91C372.823 232.54 365.703 234.389 357.753 235.221C349.183 236.122 343.433 236.073 337.753 229.23C334.183 224.913 331.823 215.543 333.933 210.258C335.273 206.88 338.503 205.931 341.013 203.686C344.223 200.859 343.333 198.159 344.773 194.674C345.773 192.341 347.613 189.921 349.773 189.679C351.233 189.515 351.713 190.851 353.283 190.454C354.593 190.115 356.823 187.385 358.333 186.64C360.783 185.42 363.093 185.285 365.713 184.704C371.073 183.552 379.223 179.71 379.423 188.324C383.493 189.099 385.913 195.99 389.593 195.39C392.433 194.906 392.863 191.828 396.193 191.518C398.332 191.327 400.489 191.504 402.563 192.041C405.643 193.009 409.783 197.849 413.263 196.068C414.843 195.245 417.263 189.205 416.893 187.356C416.283 184.317 414.783 184.995 412.113 184.898C410.163 184.84 405.593 185.362 404.403 183.339C403.343 181.529 405.713 179.313 405.993 177.599C403.703 177.328 401.103 178.229 398.863 178.664C398.783 180.736 398.863 185.953 395.183 185.304C391.743 184.694 394.233 177.87 393.323 175.625C392.483 173.602 389.683 171.259 388.143 169.624C386.603 167.988 382.363 164.174 380.733 167.688C379.523 170.262 383.443 172.189 384.883 173.495C387.313 175.722 387.333 175.693 386.543 177.774C386.313 178.403 384.683 178.345 384.383 179.1C384.083 179.855 385.383 181.19 385.273 182.1C384.843 187.105 378.153 184.704 379.843 180.077C380.723 177.696 382.253 178.809 380.483 176.206C380.093 175.625 378.613 175.16 378.043 174.589C376.853 173.399 376.683 170.882 375.163 169.991C373.643 169.101 365.603 170.853 363.963 172.479C361.123 175.325 363.473 179.719 359.643 182.255C357.353 183.775 355.343 183.785 353.293 185.633C352.233 186.601 352.363 189.37 350.213 187.511C348.063 185.653 351.013 184.801 347.153 183.455C345.453 182.865 344.103 183.765 343.013 182.071C340.883 178.771 343.483 173.36 346.773 172.634C349.053 172.14 354.083 174.018 354.383 170.901C354.683 167.784 350.313 168.191 348.943 166.7C344.613 161.986 352.153 163.022 354.663 163.274C357.863 163.574 357.743 163.574 359.983 161.793C362.223 160.012 363.983 158.231 366.853 156.885C372.933 154.088 369.263 151.078 371.073 145.454C373.073 139.395 377.533 141.185 376.793 146.683C376.573 148.348 375.033 151.523 376.463 153.033C378.293 155.037 381.133 152.365 383.113 151.562C385.623 150.594 388.233 150.836 390.873 150.09C394.283 149.122 394.363 147.816 396.463 145.415C398.113 143.537 406.313 139.085 402.163 135.91C399.553 133.974 394.603 138.649 394.473 133.48C394.383 129.676 400.143 129.134 399.113 125.495C393.773 121.884 385.443 130.431 386.803 135.581C387.613 138.698 389.423 139.956 387.643 143.237C386.073 146.141 382.643 149.113 380.103 145.725C378.693 143.789 380.103 139.356 377.233 138.281C373.823 137.033 372.743 142.211 369.933 142.666C362.273 143.886 371.033 130.247 372.353 128.244C374.823 124.517 378.203 122.213 381.763 119.416C384.853 116.967 386.823 115.438 387.763 112.776C405.074 124.64 419.466 140.058 429.91 157.928C440.354 175.798 446.594 195.679 448.183 216.153C446.9 216.938 445.464 217.458 443.963 217.682C440.613 218.369 435.333 223.161 432.093 222.957C429.273 222.774 427.353 219.453 426.093 217.15C425.373 215.92 416.303 193.813 413.793 202.059Z" fill="#307AE9"/>
<path d="M431.453 292.776C423.513 291.198 426.623 278.121 431.453 274.239C433.653 272.507 433.334 273.126 434.724 270.368C435.574 268.683 436.864 265.654 438.874 265.295C439.592 265.13 440.349 265.227 440.999 265.568C441.648 265.909 442.145 266.471 442.393 267.144L431.453 292.776Z" fill="#307AE9"/>
<path d="M250.984 356.544C251.984 354.676 252.804 352.372 253.454 351.501C254.454 350.107 257.454 349.507 258.024 347.823C258.474 346.555 257.194 343.951 257.254 342.383C257.574 334.968 264.944 331.193 269.254 325.928C271.684 322.927 272.694 319.036 276.254 318.233C279.814 317.429 281.874 318.929 284.704 315.329C287.704 311.457 289.104 308.553 293.394 305.523C298.394 301.961 299.394 300.384 300.454 294.769C301.864 287.268 310.074 282.341 305.694 274.375C302.094 267.822 294.694 264.695 287.494 264.695C277.294 264.695 275.124 260.243 269.494 252.896C265.904 248.221 262.544 249.237 257.784 247.088C254.784 245.704 254.284 243.565 249.984 243.062C246.724 242.684 239.984 243.062 237.784 240.255C235.994 237.98 239.124 235.144 236.684 232.927C234.244 230.711 230.294 232.927 230.954 228.388C231.264 226.171 236.034 223.306 232.794 221.099C228.734 218.311 226.354 224.506 224.654 225.939C217.074 232.298 211.994 218.195 217.654 212.823C221.524 209.164 233.284 205.283 237.394 210.219C238.954 212.087 238.634 220.044 243.504 217.827C247.504 215.979 242.914 209.813 242.684 207.044C242.364 203.482 245.144 201.363 247.394 198.585C248.654 197.036 250.394 195.681 251.544 194.151C252.694 192.622 252.544 190.638 253.544 188.886C256.764 183.078 263.214 185.44 267.154 181.733C273.344 175.925 262.534 177.609 260.854 176.322C256.654 173.079 266.054 171.405 268.204 171.056C272.504 170.379 280.444 169.682 280.674 164.068C281.004 156.411 270.894 153.178 265.064 152.452C260.574 151.9 260.374 149.81 256.934 147.564C253.934 145.628 250.004 146.441 246.434 146.654C247.034 151.658 249.804 156.576 247.094 161.919C243.854 168.346 238.394 164.155 234.914 160.341C232.384 157.592 231.664 156.372 228.024 154.853C224.844 153.517 222.264 152.084 221.514 148.464C220.284 142.424 228.194 135.145 233.644 133.403C237.854 132.028 241.794 130.76 245.904 132.183C251.154 133.993 251.764 136.607 254.754 140.585C261.684 149.703 271.884 143.624 270.234 133.229C269.514 128.718 265.974 126.047 261.814 124.517C258.504 123.278 253.274 123.898 250.474 121.797C247.854 119.861 248.184 115.215 244.924 114.054C242.394 113.192 236.924 115.167 235.524 117.209C233.944 119.474 237.594 131.031 230.124 128.321C228.704 127.818 226.074 123.917 225.124 122.736C223.514 120.636 223.124 119.184 224.544 116.512C226.774 112.437 233.544 110.308 237.664 108.565C240.874 107.21 244.064 106.213 245.984 102.864C246.392 102.268 246.666 101.595 246.789 100.89C246.911 100.185 246.879 99.4623 246.694 98.7698C228.933 106.261 212.909 117.13 199.571 130.731C186.234 144.333 175.856 160.389 169.054 177.948C170.654 181.316 170.634 185.575 170.574 189.428C170.464 195.235 173.664 197.607 178.054 201.111C182.444 204.615 181.554 206.367 183.324 211.052C184.384 213.878 189.124 221.176 192.764 219.86C194.174 213.781 183.554 209.803 186.074 203.628C189.474 204.373 190.624 207.916 192.314 210.548C194.484 213.917 199.124 216.114 200.314 219.937C201.504 223.761 199.584 225.281 202.914 228.039C204.12 229.158 205.549 230.028 207.113 230.595C208.677 231.163 210.345 231.416 212.014 231.34C219.364 231.456 225.574 232.743 230.354 238.658C233.104 242.036 233.914 242.529 238.014 243.672C240.014 244.233 244.014 245.472 242.744 248.172C242.364 248.927 238.944 249.073 238.104 249.944C236.314 251.802 237.534 252.393 237.214 254.203C236.514 258.075 234.534 260.862 232.924 264.444C229.924 271.132 232.254 274.123 237.634 277.995C242.504 281.547 240.264 283.803 241.634 289.126C243.554 296.609 246.984 301.71 246.224 309.715C245.764 314.38 243.224 318.707 242.964 323.208C242.704 327.709 246.074 331.164 246.904 335.404C247.904 340.708 243.034 347.803 243.904 353.737L250.984 356.544Z" fill="#307AE9"/>
<path opacity="0.5" d="M182.757 329.671L216.177 350.559C216.177 350.559 287.627 245.575 289.617 241.51C291.607 237.445 285.777 233.35 284.227 230.311C282.677 227.272 286.747 224.039 286.747 224.039L282.657 219.886L278.417 217.234L272.827 215.346C272.827 215.346 271.457 220.254 267.957 220.138C264.457 220.022 258.187 216.576 255.187 220.002C254.827 220.409 253.517 222.296 251.477 225.307L250.477 226.778L246.317 232.982L245.317 234.454L241.187 240.678L240.187 242.149C238.867 244.143 237.487 246.224 236.067 248.382L235.067 249.854C233.737 251.886 232.357 253.968 230.957 256.087L229.957 257.568L225.847 263.802L224.847 265.283C223.487 267.345 222.127 269.435 220.747 271.516L219.747 272.997L215.647 279.241C215.317 279.734 214.997 280.209 214.647 280.722C198.197 306.053 182.757 329.671 182.757 329.671Z" fill="white"/>
<path opacity="0.85" d="M284.438 249.554L284.908 248.847L284.438 249.554Z" fill="#7BAED7"/>
<path opacity="0.85" d="M283.518 251.006L284.048 250.212L283.518 251.006Z" fill="#7BAED7"/>
<path opacity="0.85" d="M285.268 248.305L285.748 247.589L285.268 248.305Z" fill="#7BAED7"/>
<path opacity="0.85" d="M286.077 247.085L286.507 246.427L286.077 247.085Z" fill="#7BAED7"/>
<path opacity="0.85" d="M282.417 252.612L283.057 251.645L282.417 252.612Z" fill="#7BAED7"/>
<path opacity="0.85" d="M280.098 256.088L282.048 253.184L280.098 256.088Z" fill="#7BAED7"/>
<path opacity="0.85" d="M287.457 244.975C287.567 244.791 287.677 244.627 287.787 244.462C287.677 244.665 287.567 244.791 287.457 244.975Z" fill="#7BAED7"/>
<path opacity="0.85" d="M286.797 245.982L287.187 245.382L286.797 245.982Z" fill="#7BAED7"/>
<path opacity="0.85" d="M289.247 242.158C289.307 242.061 289.357 241.984 289.397 241.907C289.357 241.984 289.307 242.061 289.247 242.158Z" fill="#7BAED7"/>
<path d="M282.517 227.465C282.027 228.995 281.847 230.369 282.297 231.25C283.002 232.483 283.847 233.636 284.817 234.686C286.947 237.212 288.397 239.1 287.677 240.591C286.777 242.372 271.967 264.441 254.087 290.866C253.647 290.585 253.207 290.305 252.797 289.995C250.037 288.059 247.567 285.736 244.967 283.616C242.376 281.426 239.573 279.481 236.597 277.808C233.987 276.414 231.147 275.417 228.407 274.275C226.677 273.558 224.99 272.743 223.357 271.836L227.857 264.983L237.987 249.505L242.097 243.272L243.097 241.81C244.547 239.603 245.937 237.513 247.227 235.586L248.227 234.105L252.387 227.91L253.387 226.449C256.247 222.229 256.817 221.483 256.937 221.348C257.127 221.123 257.371 220.947 257.647 220.835C259.047 220.235 261.497 220.835 263.647 221.435C265.039 221.858 266.474 222.134 267.927 222.258C268.766 222.279 269.599 222.12 270.367 221.793C271.431 221.111 272.345 220.233 273.057 219.209C273.857 218.241 274.637 217.108 275.287 216.13L278.457 217.215L282.697 219.857L284.947 222.141C283.945 223.828 283.131 225.613 282.517 227.465V227.465Z" fill="#48CFFA"/>
<path opacity="0.85" d="M288.758 242.943L288.518 243.32L288.758 242.943Z" fill="#7BAED7"/>
<path opacity="0.85" d="M278.657 258.217C278.857 257.926 279.047 257.636 279.237 257.346C279.047 257.655 278.857 257.946 278.657 258.217Z" fill="#7BAED7"/>
<path opacity="0.85" d="M288.037 244.075L288.307 243.649L288.037 244.075Z" fill="#7BAED7"/>
<path opacity="0.85" d="M288.928 242.672L289.118 242.362L288.928 242.672Z" fill="#7BAED7"/>
<path opacity="0.85" d="M264.566 279.192L265.286 278.127L264.566 279.192Z" fill="#7BAED7"/>
<path opacity="0.85" d="M263.348 280.993L263.738 280.422L263.348 280.993Z" fill="#7BAED7"/>
<path opacity="0.85" d="M266.257 276.686L266.797 275.882L266.257 276.686Z" fill="#7BAED7"/>
<path opacity="0.85" d="M267.816 274.372L268.266 273.704L267.816 274.372Z" fill="#7BAED7"/>
<path opacity="0.85" d="M224.967 265.283L221.438 270.655L224.967 265.283Z" fill="#7BAED7"/>
<path opacity="0.85" d="M289.617 241.51C289.575 241.597 289.529 241.681 289.477 241.762C289.517 241.655 289.587 241.578 289.617 241.51Z" fill="#7BAED7"/>
<path opacity="0.85" d="M277.457 260.037L277.987 259.243L277.457 260.037Z" fill="#7BAED7"/>
<path opacity="0.85" d="M273.518 265.883L274.058 265.079L273.518 265.883Z" fill="#7BAED7"/>
<path opacity="0.85" d="M274.797 264.025L275.487 262.999L274.797 264.025Z" fill="#7BAED7"/>
<path opacity="0.85" d="M276.167 261.953L276.697 261.159L276.167 261.953Z" fill="#7BAED7"/>
<path opacity="0.85" d="M272.087 268.022L272.647 267.199L272.087 268.022Z" fill="#7BAED7"/>
<path opacity="0.85" d="M269.157 272.378L269.897 271.284L269.157 272.378Z" fill="#7BAED7"/>
<path opacity="0.85" d="M270.518 270.316L271.298 269.155L270.518 270.316Z" fill="#7BAED7"/>
<path d="M180.242 390.605L247.188 290.209L227.688 278.025L160.741 378.422L180.242 390.605Z" fill="white"/>
<path d="M180.247 390.597L208.951 347.551L198.861 341.247L170.157 384.293L180.247 390.597Z" fill="#D8DDE2"/>
<path d="M290.627 201.031L323.177 151.743C323.177 151.743 327.467 149.352 326.897 150.223C326.327 151.094 291.897 203.199 291.897 203.199L290.627 201.031Z" fill="#B1BAC5"/>
<path d="M150.517 378.087C148.717 376.277 151.877 370.499 155.997 373.248C160.117 375.997 185.807 389.606 186.997 394.078C187.937 397.495 184.177 399.518 182.257 398.521C180.337 397.524 153.227 380.817 150.517 378.087Z" fill="#25405D"/>
<path d="M242.827 296.76L247.197 290.188L227.697 278.002L225.367 281.515L242.827 296.76Z" fill="#B5BBC5"/>
<path d="M202.446 357.277L206.816 350.704L187.306 338.518L184.986 342.031L202.446 357.277Z" fill="#B1BAC5"/>
<path d="M220.518 276.075C220.518 276.075 251.438 295.154 251.118 295.289C250.798 295.425 254.818 289.569 254.818 289.569C254.818 289.569 247.308 274.894 244.728 272.833C242.148 270.771 224.378 270.161 224.378 270.161L220.518 276.075Z" fill="#415972"/>
<path opacity="0.9" d="M284.227 230.301C285.777 233.341 291.617 237.454 289.607 241.51C287.597 245.566 216.177 350.559 216.177 350.559L182.757 329.671C182.757 329.671 198.197 306.053 214.827 280.722L215.827 279.241C217.187 277.169 218.567 275.088 219.927 272.997L220.927 271.526L225.027 265.292C225.357 264.799 225.687 264.325 226.027 263.802C227.417 261.701 228.797 259.611 230.137 257.568L231.137 256.087C232.527 253.958 233.907 251.877 235.237 249.863L236.237 248.382C237.657 246.224 239.037 244.143 240.357 242.149L241.357 240.668L245.477 234.454L246.477 232.982C248.037 230.65 249.427 228.559 250.627 226.778L251.627 225.307C253.627 222.296 254.977 220.409 255.337 220.002C258.337 216.566 264.617 220.002 268.107 220.147C268.81 220.087 269.488 219.865 270.086 219.502C270.684 219.139 271.185 218.643 271.547 218.057C272.358 216.972 273.03 215.795 273.547 214.553C273.727 214.098 273.827 213.807 273.827 213.807L276.417 214.775C276.227 215.056 276.017 215.366 275.777 215.743C275.017 216.847 274.027 218.173 273.077 219.305C272.374 220.283 271.501 221.134 270.497 221.822C269.729 222.149 268.896 222.308 268.057 222.287C266.604 222.163 265.169 221.887 263.777 221.464C261.607 220.902 259.157 220.264 257.777 220.864C257.501 220.976 257.257 221.152 257.067 221.377C256.947 221.512 256.377 222.258 253.517 226.478L252.517 227.939L248.357 234.134L247.357 235.615C246.067 237.551 244.677 239.632 243.227 241.839L242.227 243.301L237.987 249.505L227.807 264.992L216.687 281.902C202.777 303.101 189.687 323.098 185.797 329.061L215.517 347.607C244.117 305.569 286.077 243.62 287.607 240.59C288.327 239.1 286.877 237.212 284.747 234.686C283.777 233.635 282.931 232.483 282.227 231.25C281.777 230.359 281.967 228.936 282.477 227.378C283.103 225.573 283.91 223.832 284.887 222.18L286.717 224.048C286.717 224.048 284.087 226.139 283.877 228.549C283.809 229.154 283.931 229.765 284.227 230.301V230.301Z" fill="white"/>
<g style="mix-blend-mode:multiply">
<path d="M283.917 228.559C283.847 229.156 283.955 229.761 284.227 230.301C285.777 233.34 291.617 237.454 289.607 241.51C287.597 245.566 216.177 350.559 216.177 350.559L199.917 340.396L278.067 223.632L281.187 218.966L282.657 219.934L287.137 223.671C286.917 223.806 284.187 226.12 283.917 228.559Z" fill="#DEE2E7"/>
</g>
<g style="mix-blend-mode:multiply">
<path d="M287.127 223.642C286.917 223.806 284.187 226.12 283.917 228.559L282.517 227.388L278.087 223.651L272.927 219.325L271.417 218.076C272.228 216.991 272.9 215.814 273.417 214.572L275.647 215.763L278.457 217.263L281.227 218.986L282.697 219.954L287.127 223.642Z" fill="#D6DBE0"/>
</g>
<path d="M270.827 215.24C270.827 215.24 271.227 213.672 273.947 211.513C277.097 209.006 289.687 199.821 290.797 200.062C291.907 200.304 293.547 201.272 293.457 202.492C293.387 203.518 289.997 220.312 289.217 222.896C288.437 225.481 287.077 225.403 287.077 225.403L270.827 215.24Z" fill="#25405D"/>
<path d="M172.517 328.577C169.747 326.08 173.107 319.498 179.227 323.544C185.347 327.59 222.787 348.226 225.227 353.879C227.077 358.216 222.277 360.103 219.477 358.583C216.677 357.064 176.697 332.333 172.517 328.577Z" fill="#25405D"/>
<path d="M260.146 231.036L260.26 230.865C260.511 230.487 260.399 229.984 260.009 229.741L256.082 227.293C255.692 227.05 255.172 227.159 254.921 227.537L254.808 227.708C254.556 228.085 254.669 228.588 255.059 228.832L258.985 231.279C259.375 231.522 259.895 231.413 260.146 231.036Z" fill="#25405D"/>
<path d="M256.428 236.594L256.308 236.773C256.188 236.954 255.998 237.082 255.78 237.127C255.562 237.173 255.335 237.133 255.147 237.016L251.222 234.566C251.035 234.45 250.903 234.265 250.856 234.055C250.809 233.844 250.851 233.624 250.971 233.442L251.091 233.263C251.211 233.082 251.402 232.955 251.619 232.909C251.837 232.864 252.065 232.904 252.252 233.021L256.185 235.475C256.277 235.532 256.356 235.606 256.418 235.693C256.48 235.78 256.524 235.878 256.547 235.981C256.57 236.084 256.572 236.19 256.552 236.294C256.533 236.398 256.492 236.497 256.433 236.586L256.428 236.594Z" fill="#25405D"/>
<path d="M252.526 242.402L252.407 242.581C252.288 242.76 252.1 242.886 251.885 242.931C251.67 242.976 251.445 242.937 251.26 242.822L247.324 240.37C247.137 240.254 247.005 240.07 246.958 239.859C246.911 239.648 246.952 239.428 247.072 239.247L247.191 239.068C247.25 238.979 247.327 238.902 247.416 238.842C247.506 238.782 247.607 238.74 247.713 238.717C247.82 238.695 247.93 238.693 248.037 238.712C248.144 238.731 248.247 238.77 248.338 238.827L252.274 241.278C252.461 241.395 252.593 241.579 252.64 241.789C252.688 242 252.646 242.22 252.526 242.402Z" fill="#25405D"/>
<path d="M251.408 250.137L251.522 249.966C251.773 249.588 251.66 249.085 251.27 248.842L244.46 244.597C244.07 244.354 243.55 244.463 243.299 244.841L243.185 245.011C242.934 245.389 243.047 245.892 243.437 246.135L250.247 250.38C250.637 250.623 251.157 250.514 251.408 250.137Z" fill="#25405D"/>
<path d="M244.633 254.126L244.746 253.955C244.998 253.578 244.885 253.074 244.495 252.831L240.569 250.384C240.179 250.141 239.659 250.25 239.408 250.627L239.294 250.798C239.043 251.176 239.155 251.679 239.545 251.922L243.472 254.369C243.862 254.613 244.382 254.504 244.633 254.126Z" fill="#25405D"/>
<path d="M240.736 259.845L240.85 259.674C241.101 259.296 240.988 258.793 240.598 258.55L236.672 256.103C236.282 255.859 235.762 255.968 235.511 256.346L235.397 256.517C235.146 256.894 235.259 257.397 235.649 257.641L239.575 260.088C239.965 260.331 240.485 260.222 240.736 259.845Z" fill="#25405D"/>
<path d="M236.987 265.467L236.868 265.646C236.749 265.825 236.561 265.951 236.346 265.996C236.131 266.042 235.906 266.002 235.721 265.887L231.785 263.436C231.598 263.319 231.466 263.135 231.419 262.924C231.371 262.714 231.413 262.493 231.533 262.312L231.652 262.133C231.771 261.954 231.959 261.828 232.174 261.782C232.389 261.737 232.614 261.777 232.799 261.892L236.735 264.343C236.828 264.401 236.908 264.476 236.971 264.564C237.034 264.651 237.078 264.75 237.101 264.855C237.125 264.959 237.127 265.067 237.107 265.172C237.087 265.277 237.047 265.377 236.987 265.467V265.467Z" fill="#25405D"/>
<path d="M236.14 273.368L236.253 273.197C236.504 272.819 236.392 272.316 236.002 272.073L229.192 267.828C228.802 267.585 228.282 267.694 228.031 268.072L227.917 268.243C227.666 268.62 227.778 269.123 228.168 269.366L234.979 273.611C235.369 273.854 235.888 273.745 236.14 273.368Z" fill="#25405D"/>
<path d="M229.16 277.171L229.274 277C229.525 276.622 229.412 276.119 229.022 275.876L225.096 273.428C224.706 273.185 224.186 273.294 223.935 273.672L223.821 273.843C223.57 274.22 223.683 274.723 224.073 274.967L227.999 277.414C228.389 277.657 228.909 277.548 229.16 277.171Z" fill="#25405D"/>
<path d="M225.293 282.927L225.406 282.756C225.657 282.378 225.544 281.875 225.154 281.633L221.225 279.189C220.835 278.946 220.315 279.055 220.064 279.433L219.951 279.604C219.7 279.982 219.813 280.485 220.203 280.728L224.132 283.172C224.522 283.414 225.042 283.305 225.293 282.927Z" fill="#25405D"/>
<path d="M221.429 288.746L221.542 288.575C221.793 288.198 221.681 287.695 221.291 287.452L217.364 285.004C216.974 284.761 216.455 284.87 216.203 285.248L216.09 285.418C215.839 285.796 215.951 286.299 216.341 286.542L220.268 288.99C220.658 289.233 221.177 289.124 221.429 288.746Z" fill="#25405D"/>
<path d="M220.553 296.099L220.417 296.302C220.297 296.483 220.107 296.611 219.889 296.657C219.671 296.702 219.444 296.662 219.256 296.546L212.438 292.295C212.346 292.238 212.267 292.164 212.205 292.078C212.143 291.991 212.099 291.893 212.076 291.79C212.053 291.687 212.051 291.58 212.07 291.477C212.09 291.373 212.13 291.274 212.189 291.185L212.308 291.006C212.368 290.916 212.445 290.839 212.536 290.778C212.627 290.717 212.729 290.674 212.837 290.652C212.945 290.629 213.056 290.627 213.164 290.646C213.273 290.665 213.377 290.705 213.469 290.763L220.288 295.013C220.381 295.071 220.461 295.145 220.524 295.233C220.586 295.321 220.631 295.42 220.654 295.524C220.677 295.629 220.679 295.736 220.66 295.841C220.64 295.946 220.599 296.047 220.539 296.137L220.553 296.099Z" fill="#25405D"/>
<path d="M213.928 300.399L214.042 300.228C214.293 299.85 214.18 299.347 213.789 299.104L209.861 296.66C209.471 296.417 208.951 296.526 208.7 296.904L208.587 297.075C208.336 297.453 208.449 297.956 208.839 298.199L212.768 300.643C213.158 300.886 213.678 300.776 213.928 300.399Z" fill="#25405D"/>
<path d="M210.028 306.153L210.142 305.983C210.393 305.605 210.281 305.102 209.891 304.859L205.966 302.409C205.576 302.166 205.056 302.275 204.805 302.652L204.691 302.823C204.439 303.2 204.552 303.703 204.942 303.947L208.867 306.396C209.256 306.639 209.776 306.531 210.028 306.153Z" fill="#25405D"/>
<path d="M206.254 311.77L206.135 311.949C206.016 312.128 205.829 312.254 205.613 312.299C205.398 312.344 205.173 312.305 204.988 312.19L201.078 309.754C200.891 309.637 200.759 309.454 200.712 309.243C200.664 309.032 200.705 308.812 200.826 308.63L200.945 308.451C201.064 308.272 201.252 308.146 201.467 308.101C201.682 308.056 201.907 308.095 202.092 308.21L206.028 310.662C206.207 310.782 206.33 310.965 206.372 311.171C206.415 311.378 206.372 311.593 206.254 311.77V311.77Z" fill="#25405D"/>
<path opacity="0.5" d="M309.537 398.479L309.767 398.576C311.898 399.37 314.111 399.944 316.367 400.289C322.084 401.225 327.868 401.734 333.667 401.809C337.547 401.905 341.447 401.963 345.327 401.722C346.657 401.722 347.987 401.78 349.327 401.789C355.068 401.853 360.809 401.581 366.517 400.976C369.166 400.709 371.793 400.259 374.377 399.631C376.344 399.207 378.216 398.447 379.907 397.385C381.502 396.104 382.622 394.353 383.097 392.4C383.86 389.717 384.352 386.968 384.567 384.192C385.002 378.718 385.152 373.226 385.017 367.737C384.967 362.374 385.107 356.983 385.157 351.611C385.217 344.558 385.247 337.501 385.247 330.442C385.247 327.344 385.247 324.276 385.247 321.198C385.247 318.623 385.247 316.019 385.137 313.454C384.91 309.227 384.144 305.043 382.857 300.997C382.031 298.541 380.956 296.171 379.647 293.921C378.737 292.256 377.747 290.621 376.757 288.994C375.617 287.059 374.367 285.2 373.247 283.274C372.45 282.005 371.958 280.579 371.807 279.102C371.627 277.389 371.557 275.666 371.527 273.943C371.527 272.655 371.477 271.368 371.467 270.071C371.472 269.994 371.472 269.916 371.467 269.839C371.467 268.822 371.467 267.796 371.467 266.78C371.468 266.697 371.452 266.614 371.42 266.536C371.388 266.459 371.34 266.388 371.28 266.329C371.219 266.269 371.147 266.222 371.068 266.19C370.988 266.158 370.903 266.141 370.817 266.141H365.457H352.617C347.417 266.141 342.227 266.141 337.037 266.093H323.607C322.127 266.093 320.607 266.093 319.167 266.093C318.467 266.093 317.757 266.035 317.057 266.093H317.017C316.84 266.095 316.672 266.163 316.545 266.281C316.419 266.4 316.344 266.561 316.337 266.732C316.337 267.758 316.337 268.774 316.337 269.79C316.337 270.516 316.337 271.252 316.337 271.959C316.337 272.926 316.337 273.894 316.267 274.862C316.207 276.295 316.137 277.766 315.987 279.16C315.808 280.648 315.292 282.079 314.477 283.351C312.057 287.359 309.427 291.221 307.207 295.344C305.264 299.093 303.915 303.103 303.207 307.24C302.077 313.29 302.207 319.475 302.207 325.631C302.08 332.42 302.017 339.279 302.017 346.21C302.017 352.453 302.017 358.677 302.067 364.92C302.067 369.76 301.917 374.6 302.067 379.439C302.167 382.442 302.465 385.436 302.957 388.403C303.26 390.807 304.026 393.135 305.217 395.265C306.264 396.757 307.778 397.884 309.537 398.479V398.479Z" fill="white"/>
<path d="M385.157 351.611C385.217 344.558 385.247 337.501 385.247 330.442C385.247 327.344 385.247 324.276 385.247 321.198C385.247 318.623 385.247 316.019 385.137 313.454C384.957 310.277 384.485 307.122 383.727 304.027L303.927 303.339C303.597 304.578 303.297 305.817 303.067 307.085C301.937 313.135 302.067 319.32 302.067 325.476C302.033 332.368 302.017 339.279 302.017 346.21C302.017 352.453 302.017 358.677 302.067 364.92C302.067 369.76 301.917 374.6 302.067 379.439C302.167 382.442 302.465 385.436 302.957 388.403C303.26 390.807 304.026 393.135 305.217 395.265C306.26 396.75 307.767 397.873 309.517 398.469L309.747 398.566C311.878 399.36 314.091 399.935 316.347 400.279C322.064 401.216 327.848 401.724 333.647 401.799C337.527 401.896 341.427 401.954 345.307 401.712C346.637 401.712 347.967 401.77 349.307 401.78C355.048 401.843 360.789 401.572 366.497 400.967C369.146 400.699 371.773 400.249 374.357 399.621C376.326 399.199 378.199 398.435 379.887 397.366C381.483 396.09 382.604 394.342 383.077 392.391C383.84 389.707 384.332 386.958 384.547 384.182C384.982 378.708 385.132 373.216 384.997 367.727C385.017 362.375 385.107 356.983 385.157 351.611Z" fill="#48CFFA"/>
<path opacity="0.9" d="M309.526 398.479C311.731 399.314 314.02 399.921 316.356 400.289C322.075 401.214 327.859 401.716 333.656 401.789C337.536 401.896 341.446 401.944 345.326 401.712C346.66 401.751 347.993 401.77 349.326 401.77C355.075 401.846 360.822 401.578 366.536 400.967C369.183 400.695 371.806 400.242 374.386 399.611C376.355 399.192 378.228 398.432 379.916 397.366C381.515 396.089 382.638 394.342 383.116 392.39C383.879 389.708 384.365 386.958 384.566 384.182C385.007 378.708 385.157 373.216 385.016 367.727C385.016 362.355 385.126 356.973 385.166 351.601C385.22 344.548 385.25 337.489 385.256 330.422C385.256 327.344 385.256 324.266 385.256 321.188C385.256 318.604 385.256 316.01 385.146 313.445C384.924 309.223 384.158 305.045 382.866 301.007C381.476 296.709 379.106 292.856 376.766 288.985C375.616 287.049 374.386 285.2 373.246 283.283C372.459 282.008 371.971 280.58 371.816 279.102C371.516 276.111 371.506 273.081 371.486 270.071C371.486 268.977 371.486 267.874 371.486 266.77C371.486 266.603 371.418 266.443 371.296 266.325C371.174 266.207 371.009 266.141 370.836 266.141H368.746C368.746 267.554 368.586 270.429 368.586 270.429C368.586 273.333 368.586 276.372 368.926 279.383C369.123 281.257 369.74 283.068 370.736 284.687C371.376 285.781 372.056 286.855 372.736 287.93C373.256 288.752 373.736 289.585 374.276 290.417L374.516 290.804C376.746 294.512 378.866 298.016 380.116 301.858C381.335 305.673 382.054 309.621 382.256 313.609C382.376 315.594 382.366 317.646 382.366 319.64V321.227C382.366 324.305 382.366 327.373 382.366 330.452C382.366 337.511 382.333 344.564 382.266 351.611C382.266 353.547 382.266 355.483 382.196 357.419C382.146 360.816 382.096 364.32 382.116 367.785V368.027C382.25 373.332 382.103 378.64 381.676 383.931C381.481 386.518 381.032 389.082 380.336 391.587C380.092 392.438 379.729 393.252 379.256 394.007C378.975 394.431 378.62 394.805 378.206 395.11C376.809 395.969 375.265 396.578 373.646 396.911C371.197 397.506 368.708 397.933 366.196 398.189C360.602 398.788 354.975 399.053 349.346 398.982C348.036 398.982 346.726 398.982 345.416 398.914H345.146C341.586 399.127 338.016 399.098 333.746 398.992C328.096 398.912 322.46 398.417 316.886 397.511C314.752 397.185 312.659 396.636 310.646 395.875C309.464 395.499 308.438 394.766 307.716 393.784C306.732 391.975 306.095 390.007 305.836 387.977C305.37 385.128 305.089 382.254 304.996 379.372C304.866 376.361 304.896 373.283 304.926 370.292C304.926 368.511 304.926 366.73 304.926 364.949C304.873 358.716 304.853 352.485 304.866 346.258C304.866 339.341 304.89 332.42 304.936 325.496V322.814C304.797 317.735 305.111 312.654 305.876 307.627C306.542 303.759 307.813 300.012 309.646 296.515C311.066 293.853 312.736 291.211 314.346 288.656C315.176 287.329 316.016 286.003 316.826 284.668C317.858 283.047 318.507 281.226 318.726 279.334C318.896 277.795 318.966 276.276 319.016 274.853C319.086 273.197 319.266 268.571 319.316 266.025H319.126C318.426 266.025 317.716 265.967 317.016 266.025C316.84 266.025 316.672 266.092 316.546 266.211C316.421 266.331 316.349 266.493 316.346 266.664C316.346 269.364 316.346 272.055 316.206 274.756C316.146 276.188 316.076 277.66 315.926 279.054C315.745 280.541 315.23 281.971 314.416 283.245C311.996 287.242 309.356 291.114 307.156 295.228C305.193 298.976 303.828 302.99 303.106 307.134C301.986 313.174 302.156 319.359 302.106 325.525C302.046 332.384 302.016 339.279 302.016 346.21C302.016 352.443 302.036 358.68 302.076 364.92C302.076 369.76 301.926 374.6 302.076 379.439C302.177 382.442 302.474 385.436 302.966 388.403C303.268 390.809 304.038 393.137 305.236 395.265C306.274 396.754 307.778 397.88 309.526 398.479Z" fill="white"/>
<path d="M316.246 383.96C317.175 384.232 318.125 384.436 319.086 384.57C319.926 384.705 320.756 384.792 321.606 384.87C324.766 385.15 327.946 385.121 331.126 385.131L347.696 385.189C348.346 385.189 349.026 385.189 349.696 385.189H353.766C356.436 385.189 359.096 385.237 361.766 385.189C363.591 385.156 365.414 385.03 367.226 384.812C368.758 384.676 370.263 384.33 371.696 383.786C375.846 382.014 376.596 377.455 376.746 373.545C377.246 359.993 377.986 346.336 377.986 332.736C377.986 328.438 377.986 324.121 377.566 319.843C377.464 318.12 377.128 316.418 376.566 314.781C375.396 311.77 371.296 311.702 368.506 311.248L368.086 311.189C366.618 310.99 365.138 310.877 363.656 310.851C361.176 310.725 358.656 310.628 356.206 310.57C352.416 310.483 348.606 310.396 344.806 310.473C342.866 310.473 340.916 310.473 338.976 310.473C331.176 310.531 322.976 310.115 315.316 311.722C314.204 311.878 313.145 312.286 312.226 312.912C311.129 313.903 310.437 315.243 310.276 316.687C308.816 325.089 309.396 333.868 309.486 342.338C309.546 348.146 309.669 353.953 309.856 359.761C310.006 364.872 309.226 371.028 310.506 376.003C310.732 378.325 311.712 380.517 313.306 382.266C314.133 383.049 315.141 383.629 316.246 383.96V383.96Z" fill="white"/>
<path d="M316.877 326.164L316.667 334.323C316.658 334.7 316.726 335.074 316.868 335.425C317.009 335.776 317.222 336.096 317.493 336.366C317.764 336.636 318.088 336.852 318.445 336.999C318.803 337.147 319.188 337.225 319.577 337.227L367.687 337.76C368.077 337.769 368.464 337.702 368.827 337.564C369.19 337.426 369.521 337.22 369.801 336.957C370.08 336.693 370.302 336.379 370.454 336.031C370.607 335.684 370.686 335.311 370.687 334.933V326.377C370.687 325.623 370.379 324.901 369.829 324.368C369.28 323.834 368.535 323.533 367.757 323.531L319.817 323.395C319.05 323.392 318.313 323.681 317.763 324.198C317.213 324.716 316.895 325.422 316.877 326.164V326.164Z" fill="#A4D3EA"/>
<path d="M327.436 348.659C327.424 348.846 327.451 349.034 327.517 349.211C327.582 349.387 327.683 349.55 327.815 349.687C327.947 349.825 328.107 349.935 328.284 350.011C328.461 350.087 328.652 350.128 328.846 350.13L358.406 350.295C358.594 350.296 358.779 350.261 358.953 350.193C359.126 350.124 359.284 350.023 359.417 349.895C359.55 349.768 359.655 349.616 359.727 349.448C359.799 349.281 359.836 349.101 359.836 348.92V348.843C359.839 348.661 359.804 348.481 359.734 348.312C359.664 348.144 359.559 347.99 359.427 347.862C359.295 347.733 359.137 347.631 358.964 347.561C358.79 347.492 358.604 347.457 358.416 347.458L328.866 347.371C328.504 347.37 328.155 347.503 327.889 347.742C327.624 347.981 327.462 348.309 327.436 348.659V348.659Z" fill="#C4CBD3"/>
<path d="M327.407 357.477C327.396 357.664 327.424 357.852 327.491 358.029C327.557 358.206 327.659 358.368 327.792 358.506C327.925 358.643 328.085 358.753 328.263 358.829C328.44 358.905 328.632 358.946 328.827 358.948L358.376 359.112C358.755 359.112 359.118 358.968 359.388 358.711C359.657 358.454 359.811 358.104 359.816 357.738V357.66C359.817 357.295 359.667 356.944 359.401 356.685C359.135 356.426 358.774 356.279 358.397 356.276L328.837 356.189C328.474 356.188 328.125 356.321 327.859 356.56C327.594 356.799 327.432 357.127 327.407 357.477V357.477Z" fill="#C4CBD3"/>
<path d="M327.386 366.295C327.373 366.482 327.399 366.671 327.463 366.848C327.528 367.026 327.63 367.188 327.762 367.326C327.894 367.464 328.054 367.574 328.232 367.65C328.41 367.726 328.602 367.765 328.796 367.766L358.356 367.93C358.734 367.93 359.096 367.786 359.364 367.528C359.632 367.271 359.784 366.921 359.786 366.556V366.479C359.788 366.297 359.752 366.117 359.681 365.95C359.61 365.782 359.506 365.629 359.374 365.5C359.242 365.372 359.085 365.27 358.912 365.2C358.739 365.13 358.554 365.094 358.366 365.094L328.806 365.007C328.445 365.007 328.097 365.139 327.833 365.379C327.569 365.618 327.409 365.945 327.386 366.295V366.295Z" fill="#C4CBD3"/>
<g style="mix-blend-mode:multiply">
<path d="M316.196 273.768C316.196 273.129 316.196 272.481 316.196 271.832C316.196 271.184 316.196 270.39 316.196 269.664C316.196 268.696 316.196 267.632 316.196 266.606C316.204 266.435 316.279 266.274 316.405 266.155C316.532 266.036 316.7 265.969 316.876 265.967H317.016C317.716 265.967 318.426 265.967 319.126 265.967C320.606 265.967 322.126 265.967 323.566 265.967H336.996C342.186 265.967 347.376 265.967 352.576 266.015H365.416H370.776C370.863 266.015 370.948 266.032 371.027 266.064C371.107 266.096 371.179 266.143 371.24 266.203C371.3 266.262 371.348 266.333 371.38 266.41C371.412 266.488 371.428 266.57 371.426 266.654C371.426 267.622 371.426 268.696 371.426 269.713C371.431 269.79 371.431 269.868 371.426 269.945C371.426 271.242 371.426 272.529 371.486 273.817L316.196 273.768Z" fill="#C4CBD3"/>
</g>
<path d="M327.601 331.87C327.492 332.768 327.156 333.46 326.594 333.947C326.036 334.43 325.294 334.67 324.369 334.666C323.366 334.661 322.563 334.298 321.961 333.576C321.362 332.854 321.065 331.891 321.071 330.686L321.075 329.87C321.079 329.081 321.222 328.388 321.505 327.79C321.792 327.193 322.194 326.736 322.713 326.42C323.231 326.1 323.83 325.941 324.511 325.944C325.412 325.948 326.134 326.204 326.676 326.712C327.217 327.216 327.531 327.913 327.616 328.804L326.491 328.798C326.397 328.122 326.187 327.631 325.862 327.326C325.541 327.022 325.089 326.868 324.506 326.865C323.791 326.862 323.228 327.124 322.817 327.651C322.411 328.177 322.205 328.929 322.2 329.904L322.196 330.726C322.192 331.647 322.38 332.381 322.763 332.927C323.145 333.473 323.682 333.747 324.373 333.75C324.995 333.753 325.472 333.615 325.804 333.337C326.14 333.055 326.363 332.564 326.476 331.865L327.601 331.87ZM335.67 330.63C335.666 331.462 335.523 332.188 335.24 332.809C334.957 333.425 334.558 333.896 334.043 334.22C333.529 334.544 332.929 334.705 332.245 334.702C331.577 334.698 330.985 334.533 330.47 334.204C329.954 333.871 329.554 333.401 329.27 332.793C328.989 332.182 328.847 331.476 328.843 330.675L328.846 330.063C328.85 329.247 328.995 328.526 329.282 327.902C329.569 327.277 329.971 326.801 330.49 326.473C331.012 326.141 331.608 325.977 332.276 325.98C332.956 325.983 333.554 326.151 334.069 326.484C334.589 326.812 334.987 327.29 335.263 327.917C335.54 328.54 335.677 329.266 335.673 330.094L335.67 330.63ZM334.559 330.077C334.564 329.07 334.366 328.298 333.964 327.76C333.563 327.218 332.998 326.945 332.272 326.942C331.564 326.938 331.005 327.206 330.594 327.744C330.188 328.279 329.976 329.024 329.96 329.98L329.957 330.604C329.952 331.58 330.152 332.348 330.558 332.91C330.967 333.467 331.531 333.748 332.25 333.751C332.973 333.755 333.534 333.495 333.933 332.972C334.332 332.445 334.54 331.69 334.556 330.707L334.559 330.077ZM340.019 333.134L342.478 326.143L343.702 326.148L340.513 334.623L339.522 334.618L336.421 326.115L337.639 326.121L340.019 333.134ZM346.005 334.648L344.885 334.643L344.927 326.154L346.046 326.159L346.005 334.648ZM348.057 334.657L348.098 326.169L350.494 326.179C351.233 326.183 351.885 326.349 352.451 326.678C353.017 327.007 353.452 327.474 353.756 328.077C354.064 328.681 354.218 329.374 354.218 330.155L354.215 330.697C354.211 331.498 354.053 332.199 353.739 332.8C353.429 333.401 352.985 333.861 352.409 334.181C351.836 334.501 351.168 334.663 350.406 334.668L348.057 334.657ZM349.213 327.095L349.181 333.747L350.358 333.752C351.221 333.756 351.893 333.491 352.374 332.957C352.858 332.423 353.103 331.66 353.108 330.669L353.11 330.173C353.115 329.209 352.891 328.46 352.439 327.926C351.991 327.387 351.351 327.112 350.519 327.101L349.213 327.095ZM357.983 331.537L355.138 331.524L355.143 330.643L357.988 330.656L357.983 331.537ZM362.457 334.723L361.373 334.718L361.408 327.529L359.229 328.318L359.234 327.339L362.33 326.193L362.499 326.193L362.457 334.723ZM369.769 331.025C369.542 331.292 369.271 331.506 368.955 331.668C368.643 331.83 368.301 331.91 367.928 331.908C367.438 331.906 367.011 331.784 366.647 331.541C366.287 331.298 366.009 330.959 365.812 330.523C365.616 330.083 365.52 329.598 365.522 329.07C365.525 328.502 365.634 327.992 365.85 327.538C366.07 327.084 366.379 326.738 366.776 326.499C367.174 326.259 367.637 326.141 368.166 326.143C369.005 326.147 369.665 326.465 370.143 327.097C370.626 327.725 370.865 328.581 370.86 329.666L370.858 329.98C370.85 331.632 370.518 332.837 369.861 333.596C369.204 334.351 368.217 334.735 366.9 334.749L366.69 334.748L366.694 333.838L366.921 333.839C367.812 333.828 368.497 333.6 368.977 333.155C369.457 332.706 369.721 331.996 369.769 331.025ZM368.107 331.017C368.469 331.019 368.801 330.91 369.106 330.689C369.414 330.469 369.639 330.196 369.78 329.87L369.782 329.439C369.786 328.732 369.635 328.156 369.33 327.711C369.025 327.267 368.638 327.043 368.167 327.041C367.693 327.039 367.311 327.22 367.022 327.584C366.733 327.944 366.586 328.422 366.583 329.016C366.581 329.595 366.716 330.074 366.99 330.452C367.268 330.827 367.641 331.015 368.107 331.017Z" fill="#25405D"/>
<path d="M313.587 269.655H318.787H326.247C330.907 269.655 335.557 269.568 340.247 269.548C343.687 269.548 347.12 269.548 350.547 269.548C356.167 269.626 361.787 269.8 367.427 269.829H371.507H373.217C374.217 269.829 375.337 269.906 376.377 269.829C377.475 269.779 378.518 269.35 379.317 268.619C379.773 268.201 380.146 267.706 380.417 267.157C382.317 263.228 382.207 258.378 381.877 254.148C381.869 253.915 381.846 253.682 381.807 253.451C381.689 252.16 381.218 250.921 380.443 249.863C379.668 248.806 378.617 247.966 377.397 247.431C371.947 244.904 365.297 246.182 359.497 246.182C353.217 246.182 346.927 246.182 340.627 246.182C338.747 246.182 336.847 246.182 334.957 246.182C330.75 246.182 326.53 246.205 322.297 246.25C318.747 246.25 314.157 245.611 310.787 246.898C309.22 247.566 307.916 248.703 307.067 250.141C305.807 252.232 305.977 254.748 306.067 257.081C306.1 259.627 306.334 262.168 306.767 264.679C306.961 265.925 307.47 267.105 308.247 268.116C308.486 268.409 308.769 268.667 309.087 268.88C310.347 269.8 312.017 269.664 313.587 269.655Z" fill="#25405D"/>
<g style="mix-blend-mode:multiply">
<path d="M385.137 313.445C384.91 309.217 384.144 305.033 382.857 300.987C382.031 298.532 380.956 296.162 379.647 293.912C378.737 292.247 377.747 290.611 376.757 288.985C375.617 287.049 374.367 285.19 373.247 283.264C372.45 281.995 371.958 280.57 371.807 279.092C371.627 277.379 371.557 275.656 371.527 273.933C371.527 272.646 371.477 271.358 371.467 270.061C371.472 269.984 371.472 269.906 371.467 269.829H373.177C374.177 269.829 375.297 269.906 376.337 269.829C377.435 269.779 378.478 269.35 379.277 268.619C379.733 268.201 380.106 267.706 380.377 267.157C382.277 263.228 382.167 258.378 381.837 254.148C381.829 253.915 381.806 253.682 381.767 253.451C381.649 252.16 381.178 250.921 380.403 249.863C379.628 248.806 378.577 247.966 377.357 247.431C371.907 244.904 365.257 246.182 359.457 246.182H346.017V401.712C347.107 401.712 348.197 401.76 349.297 401.77C355.038 401.833 360.779 401.562 366.487 400.957C369.136 400.689 371.763 400.24 374.347 399.612C376.314 399.188 378.186 398.428 379.877 397.366C381.472 396.084 382.592 394.334 383.067 392.381C383.83 389.697 384.322 386.948 384.537 384.173C384.972 378.699 385.122 373.206 384.987 367.718C384.937 362.355 385.077 356.964 385.127 351.592C385.187 344.538 385.217 337.482 385.217 330.423C385.217 327.325 385.217 324.257 385.217 321.179C385.237 318.623 385.287 316.019 385.137 313.445Z" fill="#DEE2E7"/>
</g>
<path d="M15.3872 256.83C15.4283 257.255 15.5447 257.67 15.7313 258.058C15.9279 258.457 16.2058 258.814 16.5482 259.107C16.8907 259.401 17.2908 259.624 17.7245 259.764C18.1582 259.904 18.6166 259.957 19.0723 259.922C19.528 259.886 19.9716 259.762 20.3765 259.557L24.8927 264.573C21.5069 267.356 19.0145 271.018 17.7098 275.127L10.484 273.982C10.1073 272.585 9.4576 271.271 8.56997 270.11C8.11334 269.539 7.5152 269.089 6.83098 268.802C6.14677 268.514 5.39864 268.399 4.65596 268.466C3.77659 268.711 2.97319 269.162 2.31679 269.779C1.66038 270.397 1.1712 271.161 0.892492 272.005C0.159975 273.509 -0.130208 275.18 0.0537766 276.834C0.140295 277.654 0.434945 278.44 0.911475 279.123C1.38801 279.806 2.03161 280.364 2.78497 280.747C5.49467 281.913 8.74201 279.894 9.83879 277.23L17.1077 278.687C17.2455 283.645 18.9575 288.442 22.0109 292.425L19.2797 294.757C17.1292 293.466 14.0754 292.8 12.2904 294.528C10.5055 296.256 11.4947 299.982 13.6238 301.855C14.3435 302.627 15.2808 303.178 16.3202 303.441C17.3596 303.703 18.4556 303.666 19.4733 303.333C20.0106 302.982 20.4626 302.522 20.798 301.985C21.1334 301.448 21.3442 300.847 21.4158 300.223C21.4874 299.599 21.418 298.968 21.2126 298.373C21.0072 297.778 20.6705 297.233 20.226 296.776L23.7529 293.924C26.299 296.879 29.7728 298.948 33.6455 299.815L32.3551 305.331C31.7804 305.391 31.2257 305.57 30.7289 305.856C30.2321 306.142 29.8048 306.529 29.4762 306.989C29.1476 307.449 28.9254 307.973 28.8247 308.524C28.724 309.075 28.7472 309.64 28.8927 310.182C29.0965 310.705 29.4168 311.178 29.831 311.568C30.2451 311.958 30.7428 312.255 31.2889 312.438C31.8349 312.621 32.4158 312.685 32.9903 312.626C33.5649 312.567 34.1189 312.386 34.6132 312.097C35.0584 311.745 35.4172 311.303 35.6636 310.8C35.91 310.298 36.0379 309.749 36.0379 309.193C36.0379 308.637 35.91 308.088 35.6636 307.586C35.4172 307.083 35.0584 306.64 34.6132 306.289L35.6454 300.044C38.6605 300.296 41.6963 299.919 44.5488 298.941L45.9896 302.126C45.5914 302.52 45.2897 302.996 45.1067 303.518C44.9236 304.04 44.864 304.595 44.9321 305.142C45.0002 305.69 45.1943 306.215 45.5002 306.68C45.806 307.145 46.2158 307.538 46.6993 307.829C47.2216 308.056 47.7886 308.171 48.3611 308.165C48.9336 308.159 49.4979 308.033 50.0152 307.796C50.5325 307.558 50.9904 307.215 51.3573 306.789C51.7241 306.364 51.9913 305.867 52.1402 305.331C52.2248 304.784 52.1907 304.225 52.0403 303.69C51.8899 303.156 51.6264 302.658 51.2664 302.227C50.9065 301.796 50.458 301.443 49.9495 301.189C49.4409 300.935 48.8834 300.786 48.3122 300.752L47.1939 297.879C49.8861 296.589 52.2957 294.808 54.2908 292.634C56.0411 293.281 57.7198 294.097 59.3016 295.069C58.8387 295.917 58.5633 296.85 58.4929 297.806C58.4226 298.763 58.5588 299.724 58.8929 300.627C59.2439 301.516 59.823 302.303 60.5756 302.915C61.3281 303.527 62.2293 303.943 63.1941 304.124C64.2885 304.228 65.3924 304.069 66.4087 303.662C67.4249 303.256 68.3224 302.614 69.0221 301.793C70.0922 300.661 70.7709 299.235 70.9637 297.713C71.1564 296.19 70.8536 294.648 70.0973 293.3C69.6743 292.666 69.1195 292.124 68.4682 291.709C67.8169 291.294 67.0835 291.015 66.3147 290.89C65.5458 290.765 64.7584 290.796 64.0027 290.981C63.247 291.167 62.5394 291.503 61.9252 291.967L56.6779 289.157C58.2469 286.226 59.0447 282.966 59.0005 279.665L67.0005 278.728C67.2124 279.698 67.7854 280.558 68.6102 281.146C69.4351 281.733 70.4542 282.006 71.4737 281.913C72.4829 281.796 73.4324 281.388 74.1993 280.742C74.9662 280.096 75.515 279.242 75.7748 278.291C76.0069 277.344 76.0072 276.358 75.7757 275.411C75.5442 274.464 75.0873 273.583 74.4415 272.837C74.0775 272.349 73.6121 271.939 73.0752 271.634C72.5382 271.329 71.9415 271.137 71.3231 271.068C68.764 270.943 67.1941 273.691 66.2479 276.001L58.8069 276.709C57.9734 272.532 55.8952 268.682 52.8284 265.635L57.3661 260.514C58.1423 261.256 59.1732 261.697 60.2629 261.752C61.3527 261.807 62.4254 261.473 63.2772 260.813C64.1291 260.153 64.7008 259.213 64.8837 258.171C65.0666 257.13 64.8479 256.06 64.2693 255.164C63.6268 254.196 62.7923 253.361 61.8141 252.707C60.8359 252.053 59.7333 251.594 58.5704 251.355C57.5506 251.111 56.4731 251.25 55.5552 251.744C54.6372 252.239 53.9471 253.052 53.6241 254.019C53.584 254.804 53.7081 255.588 53.9889 256.325C54.2698 257.062 54.7017 257.736 55.2585 258.308C53.7101 260.077 52.1832 261.867 50.6563 263.657C47.942 261.7 44.8132 260.349 41.495 259.702L42.1401 253.457C43.3122 253.244 44.3659 252.63 45.1088 251.727C45.8517 250.824 46.2342 249.692 46.1864 248.539C46.1387 247.386 45.6639 246.287 44.8487 245.445C44.0336 244.602 42.9325 244.072 41.7466 243.95C40.5607 243.828 39.3691 244.123 38.3895 244.782C37.4099 245.44 36.7076 246.417 36.411 247.535C36.1143 248.654 36.2431 249.838 36.7738 250.871C37.3045 251.905 38.2016 252.72 39.3014 253.166L38.5917 259.411C34.4599 259.317 30.408 260.522 27.0432 262.846L22.7421 257.288C23.0118 256.943 23.2063 256.549 23.3137 256.13C23.421 255.71 23.439 255.274 23.3666 254.847C23.2942 254.421 23.1328 254.013 22.8923 253.649C22.6519 253.285 22.3374 252.972 21.9679 252.729C21.1866 252.281 20.2789 252.085 19.375 252.167C18.471 252.249 17.6171 252.606 16.9356 253.187C16.4076 253.639 15.9935 254.203 15.7251 254.834C15.4567 255.466 15.3412 256.148 15.3872 256.83V256.83Z" fill="#E39411"/>
<path d="M29.7096 274.898C27.9246 278 25.5375 288.262 27.559 288.72C29.5805 289.178 32.3762 275.44 31.8601 274.524C31.1289 273.046 29.9891 274.503 29.7096 274.898Z" fill="#25405D"/>
<path d="M22.9781 279.29C26.634 279.124 37.3008 281.539 36.8492 283.454C36.3976 285.369 22.5695 282.392 21.7953 280.956C21.0211 279.519 22.3759 279.332 22.9781 279.29Z" fill="#25405D"/>
<path d="M43.7522 266.01C42.0102 269.132 39.7306 279.415 41.6016 279.832C43.4726 280.248 46.2683 266.509 45.9027 265.614C45.15 264.095 44.0317 265.51 43.7522 266.01Z" fill="#25405D"/>
<path d="M37.0642 270.464C40.7201 270.256 51.4084 272.546 50.9783 274.44C50.5482 276.334 36.6986 273.524 35.9244 272.088C35.1502 270.652 36.462 270.506 37.0642 270.464Z" fill="#25405D"/>
<path d="M35.8809 290.781C35.8809 290.781 40.182 298.983 43.2143 297.401C47.924 295.028 41.8164 286.993 41.8164 286.993L35.8809 290.781Z" fill="#C73405"/>
<path d="M49.3439 281.685C49.3439 281.685 34.29 290.511 34.8492 291.531C35.4083 292.551 50.9783 282.788 50.6987 281.539C50.5267 280.748 49.9676 281.227 49.3439 281.685Z" fill="#25405D"/>
<path d="M435.154 24.0003C434.642 23.6319 434.009 23.4569 433.374 23.5082C432.738 23.5595 432.143 23.8335 431.702 24.2788C431.278 24.6553 430.969 25.1369 430.808 25.6714C430.526 25.6571 430.242 25.6571 429.96 25.6714H428.279C427.295 25.6714 426.31 25.7593 425.326 25.8033C425.326 25.3196 425.326 24.8358 425.205 24.3374C425.043 22.5875 424.657 20.864 424.054 19.2069C423.579 18.1132 422.953 17.0874 422.191 16.158V16.158C422.767 15.6596 423.342 15.1905 423.918 14.6921C424.493 14.1937 425.038 13.7833 425.583 13.2995C425.945 12.9909 426.289 12.663 426.613 12.3174C426.827 12.4394 427.05 12.5472 427.279 12.6399C428.285 13.0607 429.383 13.232 430.475 13.1383C431.307 13.1033 432.1 12.7869 432.716 12.2441C433.212 11.708 433.487 11.0141 433.488 10.2945C433.389 8.59792 432.657 6.99381 431.429 5.77969C430.814 5.01426 429.955 4.46703 428.985 4.22313C428.016 3.97923 426.99 4.05235 426.068 4.4311C425.61 4.68883 425.214 5.03772 424.906 5.45467C424.598 5.87162 424.385 6.34714 424.281 6.84976C424.072 8.05835 424.296 9.29986 424.917 10.3678C424.584 10.5701 424.269 10.8006 423.978 11.0568C423.493 11.4379 423.039 11.8337 422.57 12.2148C421.813 12.8451 421.055 13.4754 420.253 14.0325C419.273 13.1629 418.178 12.4235 416.997 11.8337C415.4 11.1344 413.714 10.6416 411.984 10.3678C411.96 10.3101 411.917 10.2609 411.863 10.2269C411.809 10.1928 411.746 10.1755 411.681 10.1773H410.863L409.031 9.89874C409.112 8.95937 409.071 8.01392 408.91 7.0843C410.591 6.4833 412.332 5.61844 412.62 3.71283C412.674 2.85685 412.392 2.01269 411.831 1.34944C411.269 0.686197 410.469 0.252829 409.591 0.13614C406.941 -0.464861 402.549 0.927703 403.337 4.24054C403.587 5.00275 404.103 5.65738 404.796 6.09302C405.489 6.52865 406.317 6.71837 407.138 6.62989C407.1 6.94153 407.1 7.25639 407.138 7.56803V8.88731C407.138 9.34172 407.138 9.76682 407.138 10.2066C404.654 10.2345 402.214 10.8537 400.036 12.0096C399.453 12.347 398.897 12.7242 398.37 13.1383L398.279 13.0503C397.821 12.5607 397.391 12.0469 396.992 11.5112C396.598 10.9835 396.204 10.4704 395.795 9.97204L395.386 9.47365L395.523 9.34172C395.825 8.95957 396.009 8.50199 396.053 8.02245C396.096 7.56953 396.055 7.11274 395.932 6.67386C395.81 6.2121 395.576 5.78502 395.25 5.42788C394.797 5.05424 394.234 4.82888 393.641 4.78412C393.048 4.73935 392.456 4.87747 391.949 5.17869C391.142 5.56459 390.522 6.24021 390.223 7.06163C389.923 7.88305 389.966 8.78533 390.343 9.57626C390.555 9.92932 390.864 10.2181 391.236 10.4098C391.608 10.6015 392.028 10.6885 392.448 10.661C392.859 10.6333 393.26 10.5288 393.63 10.3532L393.872 10.6903C394.341 11.2913 394.841 11.863 395.386 12.4054L396.992 14.1058L397.128 14.2523C395.614 15.7379 394.416 17.4957 393.599 19.4268C393.493 19.676 393.402 19.9252 393.312 20.1744C392.948 20.0864 392.585 19.9985 392.221 19.8812L390.434 19.3975C390.496 18.9018 390.391 18.3999 390.135 17.9667C389.878 17.5335 389.484 17.1921 389.011 16.9935C388.453 16.7105 387.818 16.6029 387.193 16.6857C386.543 16.8007 385.96 17.1455 385.558 17.6531C385.09 18.2137 384.819 18.9048 384.787 19.6251C384.754 20.3453 384.96 21.0567 385.376 21.6549C385.747 22.0592 386.24 22.341 386.785 22.4611C387.335 22.5636 387.9 22.5636 388.45 22.4611C389.151 22.3427 389.776 21.9639 390.192 21.4057L391.373 21.8455L392.66 22.2266C392.083 24.4911 391.995 26.8466 392.403 29.1454L391.01 29.8051C390.129 30.2483 389.212 30.6209 388.269 30.9191C387.961 30.1051 387.438 29.3832 386.753 28.8252C386.067 28.2672 385.243 27.8925 384.362 27.7382C383.467 27.4961 382.515 27.5524 381.658 27.8981C380.801 28.2438 380.089 28.8587 379.637 29.6438C379.233 30.4558 379.017 31.3427 379.001 32.2434C378.985 33.1442 379.171 34.0376 379.546 34.8623C380.439 36.8852 382.847 38.996 385.27 38.395C386.426 38.0325 387.427 37.3112 388.117 36.3428C388.662 35.6957 388.966 34.8904 388.98 34.0561C389.45 33.9241 389.889 33.7629 390.343 33.587L392.645 32.6342L393.372 32.341C394.242 34.3835 395.56 36.2189 397.234 37.7207C397.567 38.0285 397.915 38.307 398.279 38.5856C397.249 40.0514 396.28 41.5173 395.326 42.9831C395.136 43.2322 394.978 43.503 394.856 43.7893C394.2 43.5065 393.47 43.4209 392.763 43.5437C392.056 43.6666 391.403 43.9921 390.889 44.4783C390.445 44.9526 390.138 45.531 389.997 46.1559C389.856 46.7807 389.887 47.4304 390.086 48.0403C390.318 48.7511 390.733 49.3931 391.292 49.9059C391.851 50.4187 392.536 50.7856 393.281 50.972C394.796 51.3678 397.173 51.3825 398.037 49.8433C398.4 48.9433 398.4 47.9436 398.037 47.0435C397.846 46.2205 397.497 45.4397 397.007 44.7422C398.006 43.0652 399.119 41.4541 400.338 39.9195C403.424 41.5649 406.947 42.2796 410.455 41.9717C410.46 41.9958 410.46 42.0209 410.455 42.045C410.576 42.6606 411.393 46.9409 411.409 47.1315C411.401 47.1899 411.401 47.249 411.409 47.3074C408.38 47.4247 406.865 51.9102 409.697 53.5373C410.429 53.9256 411.241 54.1508 412.074 54.1965C412.908 54.2421 413.741 54.1071 414.513 53.8011C416.028 53.2148 417.89 51.9835 418.042 50.2245C418.088 49.7888 418.015 49.3491 417.828 48.9499C417.642 48.5508 417.35 48.2066 416.982 47.9524C416.026 47.4177 414.935 47.1536 413.832 47.1901C413.794 46.8301 413.734 46.4727 413.65 46.1201C413.483 45.2259 413.317 44.3317 413.12 43.4375C412.999 42.8659 412.893 42.2795 412.756 41.6932C413.815 41.4084 414.857 41.0659 415.876 40.6671C417.375 40.0665 418.77 39.2458 420.01 38.2338C420.374 38.6589 423.357 41.5759 423.584 41.7518C423.286 42.2826 423.13 42.8773 423.13 43.4815C423.13 44.0858 423.286 44.6804 423.584 45.2112C423.878 45.8016 424.313 46.3158 424.853 46.7109C425.392 47.1061 426.022 47.3709 426.689 47.4833C427.468 47.5189 428.244 47.3513 428.934 46.9981C429.623 46.6448 430.203 46.1189 430.611 45.4751C431.042 44.8638 431.254 44.1321 431.213 43.393C431.172 42.6539 430.88 41.9484 430.384 41.3853C429.763 40.7069 428.935 40.2375 428.021 40.0451C427.106 39.8527 426.151 39.9473 425.296 40.3153C425.114 40.1833 422.085 37.105 421.661 36.6946C422.36 35.9172 422.974 35.0723 423.493 34.1733C424.563 32.2819 425.183 30.1839 425.311 28.0314L427.961 28.2073H429.703C430.005 28.2073 430.308 28.2073 430.626 28.2073C430.788 28.2218 430.95 28.2218 431.111 28.2073C431.119 28.4871 431.184 28.7626 431.303 29.0178C431.421 29.2729 431.591 29.5027 431.803 29.6937C432.014 29.8846 432.263 30.033 432.534 30.1301C432.805 30.2273 433.094 30.2713 433.382 30.2595C434.027 30.2319 434.651 30.0325 435.185 29.6833C435.72 29.334 436.144 28.8486 436.411 28.2806C436.676 27.528 436.697 26.7153 436.472 25.9507C436.248 25.1861 435.788 24.5058 435.154 24.0003V24.0003ZM390.404 19.8812H390.328H390.404Z" fill="#F4BC5F"/>
<path d="M402.55 28.9693H402.368C402.192 28.936 402.02 28.8869 401.853 28.8227C401.118 28.5068 400.537 27.9267 400.235 27.2048C399.933 26.4828 399.932 25.6755 400.233 24.953C400.463 24.5458 400.783 24.1924 401.17 23.9176C401.557 23.6429 402.001 23.4535 402.472 23.3627C402.942 23.2719 403.428 23.2819 403.894 23.392C404.36 23.5022 404.795 23.7097 405.17 24.0002C405.328 24.1259 405.453 24.2868 405.533 24.4692C405.533 24.5719 405.639 24.6891 405.685 24.821C405.776 25.0925 405.836 25.3726 405.866 25.6566C405.951 26.1006 405.926 26.5579 405.791 26.9902C405.656 27.4225 405.416 27.8174 405.092 28.1417C404.767 28.466 404.367 28.7103 403.925 28.8543C403.482 28.9983 403.011 29.0377 402.55 28.9693V28.9693Z" fill="white"/>
<path d="M406.063 25.5247C406.063 25.5247 397.749 23.6924 397.385 22.7836C397.251 22.4956 397.177 22.1843 397.17 21.8683C397.162 21.5523 397.22 21.238 397.34 20.9441C397.46 20.6501 397.64 20.3825 397.869 20.1571C398.097 19.9318 398.371 19.7532 398.672 19.632C399.869 19.4122 406.244 23.1354 406.502 24.0296C406.595 24.2924 406.603 24.5765 406.524 24.8437C406.446 25.1109 406.285 25.3485 406.063 25.5247V25.5247Z" fill="#25405D"/>
<path d="M402.549 28.9694H402.368C402.192 28.9361 402.019 28.887 401.853 28.8228C401.563 28.4827 401.363 28.0793 401.271 27.6476C401.179 27.216 401.196 26.769 401.323 26.3455C401.511 25.7924 401.844 25.2962 402.29 24.9055C402.736 24.5149 403.28 24.2433 403.867 24.1174C404.448 24.0192 405.046 24.1455 405.533 24.4692C405.533 24.5718 405.639 24.6891 405.684 24.821C405.775 25.0925 405.836 25.3726 405.866 25.6565C405.951 26.1005 405.925 26.5578 405.79 26.9902C405.656 27.4225 405.416 27.8174 405.091 28.1417C404.767 28.466 404.366 28.7104 403.924 28.8544C403.482 28.9984 403.011 29.0378 402.549 28.9694V28.9694Z" fill="#25405D"/>
<path d="M415.089 26.4191L415.24 26.3165C415.393 26.2247 415.531 26.111 415.649 25.9793C416.205 25.4172 416.516 24.6689 416.516 23.8905C416.516 23.1121 416.205 22.3638 415.649 21.8016C415.27 21.5179 414.832 21.317 414.364 21.2129C413.897 21.1088 413.412 21.104 412.943 21.1987C412.474 21.2935 412.032 21.4855 411.646 21.7617C411.261 22.0379 410.942 22.3916 410.712 22.7984C410.614 22.9681 410.567 23.1611 410.576 23.3554C410.561 23.487 410.561 23.6197 410.576 23.7512C410.593 24.0356 410.649 24.3166 410.742 24.5868C410.844 25.0228 411.05 25.4296 411.344 25.7742C411.638 26.1187 412.012 26.3913 412.436 26.5697C412.859 26.7482 413.32 26.8276 413.781 26.8014C414.242 26.7752 414.69 26.6443 415.089 26.4191V26.4191Z" fill="white"/>
<path d="M410.47 24.5865C410.47 24.5865 417.376 19.7639 417.346 18.7231C417.35 18.4069 417.289 18.0931 417.167 17.7998C417.044 17.5065 416.863 17.2396 416.634 17.0146C416.404 16.7897 416.13 16.611 415.829 16.4891C415.528 16.3672 415.204 16.3045 414.877 16.3045C413.696 16.5537 409.335 22.3877 409.471 23.3552C409.489 23.6343 409.594 23.9017 409.772 24.1216C409.951 24.3415 410.194 24.5037 410.47 24.5865V24.5865Z" fill="#25405D"/>
<path d="M415.089 26.4189L415.24 26.3163C415.393 26.2245 415.531 26.1108 415.649 25.9792C415.783 25.5598 415.806 25.1146 415.716 24.6843C415.626 24.2541 415.426 23.8526 415.134 23.5166C414.745 23.0732 414.242 22.7378 413.675 22.5447C413.108 22.3515 412.499 22.3075 411.908 22.4172C411.336 22.5425 410.836 22.879 410.515 23.3553C410.5 23.4868 410.5 23.6196 410.515 23.7511C410.533 24.0355 410.589 24.3164 410.682 24.5866C410.78 25.0314 410.987 25.4469 411.285 25.7983C411.583 26.1497 411.964 26.4268 412.396 26.6062C412.827 26.7857 413.297 26.8624 413.766 26.8298C414.234 26.7972 414.688 26.6563 415.089 26.4189V26.4189Z" fill="#25405D"/>
<path d="M405.866 31.271C405.866 31.271 406.214 38.7323 411.333 37.9553C416.452 37.1784 413.287 28.9256 413.287 28.9256L405.866 31.271Z" fill="#25405D"/>
<path d="M413.074 34.1734C412.3 34.1411 411.534 34.3385 410.879 34.7394C410.224 35.1402 409.711 35.7252 409.409 36.4161C409.229 36.8391 409.136 37.2923 409.137 37.7499C409.816 38.0032 410.554 38.0741 411.272 37.9551C412.11 37.826 412.87 37.4011 413.404 36.7624C413.938 36.1238 414.209 35.3164 414.165 34.4959C413.829 34.3139 413.457 34.204 413.074 34.1734Z" fill="#F17631"/>
<path d="M108.216 68.07C107.537 67.622 106.743 67.3628 105.922 67.3206C105.101 67.2784 104.284 67.4547 103.559 67.8305C103.233 68.0014 102.945 68.233 102.712 68.5119C102.48 68.7907 102.306 69.1114 102.201 69.4554C102.097 69.7994 102.063 70.1601 102.103 70.5166C102.143 70.8731 102.255 71.2185 102.434 71.5329L101.871 71.7943L100.881 72.4041C100.251 72.7961 99.6211 73.1881 99.0136 73.6019C98.4061 74.0157 97.1461 74.8651 96.2011 75.4967C94.5967 73.199 92.473 71.2849 89.991 69.8995C88.8024 69.2474 87.5516 68.7077 86.256 68.2878C86.436 67.5691 87.6735 62.2333 87.786 61.9501C88.9708 61.8162 90.0814 61.3226 90.9585 60.5401C91.8356 59.7576 92.4342 58.7264 92.6686 57.5943C92.8273 56.6527 92.6623 55.6868 92.1989 54.8448C91.7355 54.0028 90.9994 53.3313 90.1035 52.9336C89.2166 52.4632 88.2142 52.235 87.2036 52.2733C86.193 52.3117 85.2121 52.6152 84.366 53.1514C83.7025 53.7016 83.1862 54.3989 82.861 55.1838C82.5359 55.9688 82.4115 56.8181 82.4984 57.6596C82.5172 58.4258 82.7328 59.1753 83.1256 59.8407C83.5184 60.5061 84.0761 61.0663 84.7485 61.471C84.636 61.8194 83.3309 66.9593 83.2184 67.6562C81.1839 67.3404 79.1104 67.3404 77.0759 67.6562C75.6895 67.8723 74.3152 68.1557 72.9583 68.5056C72.6883 67.7869 72.4183 67.0682 72.1708 66.3277C71.7433 65.2388 71.3383 64.1498 70.9108 63.0391C70.7542 62.6019 70.5739 62.173 70.3708 61.7541C71.6051 61.0828 72.6248 60.0958 73.3183 58.9011C73.5531 58.3861 73.6414 57.8198 73.5742 57.2608C73.5069 56.7017 73.2865 56.1702 72.9358 55.7213C72.1342 54.9114 71.1215 54.3261 70.0047 54.0271C68.8879 53.7281 67.7084 53.7265 66.5907 54.0225C65.5308 54.1825 64.5208 54.5683 63.6336 55.1521C62.7464 55.7359 62.0043 56.5031 61.4607 57.3983C59.4582 61.0136 64.1382 65.021 67.6258 63.1697C67.6173 63.2348 67.6173 63.3007 67.6258 63.3658C67.6258 63.5836 69.8758 68.8323 70.0558 69.5946C65.9811 71.4981 62.5824 74.5302 60.2907 78.3062C57.9827 77.373 55.736 76.3038 53.5631 75.1047C53.6175 74.0198 53.465 72.9345 53.1131 71.9032C52.8946 70.6728 52.2034 69.5679 51.1781 68.8105C49.1756 67.678 46.5655 69.2243 45.1705 70.64C44.4793 71.3151 43.9748 72.1478 43.7035 73.0612C43.4322 73.9747 43.4028 74.9396 43.618 75.867C43.8168 76.6685 44.2287 77.4058 44.8128 78.0056C45.397 78.6054 46.1331 79.0469 46.948 79.2863C47.8464 79.4883 48.7867 79.4262 49.6484 79.1081C50.5102 78.7899 51.2543 78.2302 51.7856 77.5004C52.1133 77.7356 52.4681 77.9329 52.8431 78.0884C54.9356 79.112 57.0281 80.1357 59.1432 81.0722C58.9407 81.5949 58.7607 82.1393 58.5807 82.6838C57.7702 85.4139 57.5708 88.2799 57.9957 91.0905L57.0056 91.2212L53.8106 91.6786C53.1956 91.7657 52.5881 91.8746 51.9881 92.0053C51.3986 91.102 50.5103 90.4188 49.468 90.0669C48.0595 89.4442 46.4794 89.2836 44.968 89.6096C41.8855 90.5025 40.6705 94.401 41.0755 97.1887C41.2223 98.3375 41.6267 99.4414 42.2601 100.423C42.8936 101.405 43.741 102.241 44.743 102.873C45.7757 103.449 46.9785 103.672 48.158 103.506C49.3375 103.34 50.425 102.795 51.2456 101.958C52.1011 101.215 52.7465 100.273 53.1205 99.2214C53.4946 98.1695 53.585 97.0425 53.3831 95.9473C54.624 95.658 55.889 95.4758 57.1632 95.4028L59.1432 95.2503C60.2811 98.0398 61.9962 100.575 64.1832 102.699C63.7782 103.113 63.3957 103.526 63.0132 103.962C62.6307 104.398 62.3382 104.768 62.0232 105.182C61.1728 104.843 60.2186 104.843 59.3682 105.182C58.694 105.425 58.0806 105.804 57.5681 106.292C57.0451 106.77 56.6908 107.395 56.5556 108.078C56.4968 109.015 56.7519 109.945 57.283 110.729C57.8141 111.514 58.5928 112.112 59.5032 112.434C60.2905 112.738 61.1684 112.738 61.9557 112.434C62.7043 112.12 63.3389 111.597 63.7782 110.931C64.1729 110.414 64.3858 109.788 64.3858 109.145C64.3858 108.503 64.1729 107.877 63.7782 107.36L65.4208 105.683C65.7358 105.334 66.0733 104.986 66.4108 104.659C66.6808 104.877 66.9508 105.094 67.2433 105.291C69.4591 106.901 71.9828 108.071 74.6684 108.732C74.6792 108.818 74.6792 108.906 74.6684 108.993L73.8133 111.824C73.6333 112.761 73.4533 113.719 73.3633 114.677C73.3633 114.852 73.3633 115.026 73.3633 115.2C72.8356 115.245 72.3227 115.393 71.8558 115.636C71.3738 115.864 70.9693 116.221 70.6902 116.665C70.4111 117.109 70.269 117.621 70.2808 118.14C70.4219 119.245 70.995 120.256 71.8821 120.965C72.7692 121.674 73.9031 122.027 75.0509 121.952C75.815 121.954 76.5606 121.724 77.1824 121.294C77.8041 120.864 78.2706 120.256 78.5159 119.556C78.6246 118.953 78.5861 118.334 78.4034 117.748C78.2426 117.183 77.9757 116.651 77.6159 116.18C77.242 115.67 76.716 115.282 76.1084 115.069H75.8834C75.8834 114.786 75.8834 114.525 75.9959 114.242C75.9959 113.436 76.1984 112.608 76.2659 111.781C76.3416 110.933 76.4618 110.09 76.6259 109.254V109.102C77.4835 109.215 78.3479 109.273 79.2134 109.276C82.387 109.154 85.4797 108.271 88.2135 106.706C88.506 107.207 88.776 107.686 89.091 108.187L89.9685 109.646C90.1537 110.004 90.3801 110.34 90.6435 110.648C89.684 111.085 88.9082 111.827 88.4455 112.75C87.9828 113.674 87.8612 114.723 88.101 115.723C89.496 119.883 95.3011 118.598 97.7986 116.245C98.6862 115.572 99.2805 114.601 99.4638 113.525C99.6472 112.448 99.4062 111.343 98.7886 110.43C97.9573 109.654 96.9196 109.117 95.7913 108.879C94.6629 108.64 93.4883 108.71 92.3985 109.08C91.9329 107.961 91.3285 106.9 90.5985 105.922L92.4435 104.441L93.3435 103.897C93.4185 103.864 93.4796 103.807 93.5164 103.735C93.5533 103.664 93.5638 103.583 93.5461 103.505C95.2593 102.083 96.7723 100.451 98.0461 98.6479C98.9447 97.2452 99.6554 95.7376 100.161 94.1614C101.421 94.1614 102.681 94.4663 103.941 94.6623L106.191 95.0326C106.686 95.1405 107.192 95.1917 107.699 95.185C107.724 96.786 108.33 98.3274 109.409 99.5408C109.865 100.031 110.424 100.42 111.049 100.683C111.674 100.946 112.35 101.076 113.031 101.065C114.32 100.921 115.521 100.365 116.446 99.4858C117.372 98.6061 117.967 97.4529 118.139 96.2086C118.669 94.0851 118.381 91.8471 117.329 89.9145C116.836 89.0818 116.03 88.4654 115.079 88.1939C114.02 87.9956 112.923 88.1572 111.974 88.6513C110.715 89.2543 109.627 90.1436 108.801 91.243C108.621 91.5043 108.441 91.7657 108.284 92.027C107.676 91.8746 107.091 91.7004 106.484 91.5915L103.694 91.1559L100.814 90.6767C100.994 89.1465 100.948 87.5992 100.679 86.0814C100.201 83.8662 99.4454 81.7159 98.4286 79.6783C98.1586 79.0903 97.8886 78.5458 97.5736 77.9795C98.6986 77.4133 99.8236 76.847 100.926 76.259L102.794 75.2136C103.064 75.0394 103.424 74.8651 103.716 74.6473C104.263 75.1261 104.93 75.4567 105.651 75.6056C106.445 75.8136 107.291 75.7335 108.028 75.3806C108.766 75.0277 109.345 74.4261 109.656 73.6891C110.05 72.7238 110.123 71.6638 109.865 70.6566C109.607 69.6494 109.03 68.7452 108.216 68.07V68.07Z" fill="#5DB0DA"/>
<path d="M88.37 84.2953C89.0292 83.5332 89.4285 82.5924 89.5131 81.6019C89.5977 80.6114 89.3635 79.6198 88.8425 78.7633C88.515 78.125 88.0433 77.5662 87.4622 77.1284C86.8811 76.6907 86.2057 76.3851 85.486 76.2345C84.7663 76.0839 84.0208 76.092 83.3048 76.2583C82.5888 76.4247 81.9207 76.7449 81.35 77.1952C80.6235 77.7356 80.0476 78.4428 79.6743 79.2527C79.3011 80.0627 79.1424 80.9499 79.2124 81.8342C79.2925 82.2856 79.4523 82.7203 79.6849 83.1192C80.037 83.8374 80.5448 84.4738 81.1738 84.9849C81.8028 85.496 82.5382 85.8699 83.33 86.0811C84.258 86.3166 85.2382 86.2718 86.1391 85.9525C87.04 85.6333 87.8184 85.055 88.37 84.2953V84.2953Z" fill="white"/>
<path d="M88.3707 84.2956C88.2344 83.5762 87.9305 82.8963 87.4822 82.3076C87.0338 81.7189 86.4528 81.2368 85.7831 80.898C84.6694 80.4582 83.4259 80.4379 82.2974 80.8409C81.169 81.244 80.2372 82.0413 79.6855 83.0759C80.0376 83.7942 80.5454 84.4305 81.1744 84.9417C81.8034 85.4528 82.5388 85.8267 83.3306 86.0379C84.2541 86.2779 85.2312 86.2398 86.1316 85.9285C87.0321 85.6172 87.8132 85.0476 88.3707 84.2956V84.2956Z" fill="#25405D"/>
<path d="M74.7132 86.4734C74.3116 85.8763 73.7763 85.3744 73.147 85.0049C72.5177 84.6353 71.8106 84.4076 71.078 84.3386C70.3454 84.2695 69.6062 84.361 68.9151 84.6061C68.2239 84.8513 67.5987 85.2438 67.0856 85.7547C66.4259 86.3731 65.9363 87.1414 65.6612 87.9895C65.3862 88.8377 65.3344 89.739 65.5106 90.6114V90.6114C65.8627 91.5566 66.4626 92.397 67.2516 93.0499C68.0405 93.7028 68.9913 94.1459 70.0107 94.3357C70.7469 94.4477 71.5003 94.3809 72.2033 94.1414C72.9062 93.902 73.5368 93.4972 74.0382 92.9636C74.9413 92.1429 75.507 91.0337 75.6311 89.8408C75.7552 88.6479 75.4291 87.4518 74.7132 86.4734V86.4734Z" fill="white"/>
<path d="M74.1283 93.007C74.1681 92.015 73.8827 91.0362 73.3128 90.2108C72.743 89.3854 71.9179 88.7556 70.9558 88.4116C69.9283 88.103 68.8216 88.1518 67.8272 88.5495C66.8329 88.9472 66.0135 89.6688 65.5107 90.5896C65.8628 91.5348 66.4627 92.3751 67.2517 93.028C68.0406 93.6809 68.9915 94.124 70.0108 94.3138C70.7553 94.449 71.523 94.4002 72.2428 94.1717C72.9625 93.9433 73.6111 93.5427 74.1283 93.007V93.007Z" fill="#25405D"/>
<path d="M74.7802 98.5169C75.1825 96.8067 76.0175 95.2201 77.2102 93.8997C78.4218 92.407 79.9807 91.2126 81.7599 90.414C83.539 89.6153 85.488 89.2351 87.4478 89.3043C88.5358 89.3009 89.6074 89.56 90.566 90.0581C91.5245 90.5562 92.3397 91.2777 92.9379 92.1574C93.5447 92.8739 93.8612 93.7798 93.8281 94.7057C93.7949 95.6317 93.4145 96.5142 92.7579 97.1884C91.4979 98.212 89.5403 97.4062 88.2578 97.1884C86.4762 96.7789 84.5995 97.0686 83.0378 97.9942C81.1928 99.3663 81.3503 102.132 79.4377 103.417C78.8289 103.781 78.096 103.895 77.4 103.736C76.7039 103.577 76.1016 103.157 75.7252 102.568C75.2609 102.006 74.9346 101.35 74.7709 100.648C74.6072 99.9459 74.6103 99.2173 74.7802 98.5169V98.5169Z" fill="#25405D"/>
<path d="M88.9327 78.045C87.5248 78.4695 86.0172 78.4719 84.6078 78.0522C83.1984 77.6324 81.9531 76.81 81.0352 75.6929C80.6302 75.0831 79.8426 72.4914 81.4852 72.7092C81.8902 72.7092 82.1151 73.1883 82.3401 73.4932C82.7655 74.1485 83.3635 74.6822 84.0727 75.0395C85.0285 75.4991 86.0681 75.7728 87.1327 75.8454C87.8329 75.823 88.5338 75.8667 89.2252 75.976C89.4479 76.0134 89.6478 76.1305 89.7854 76.304C89.9229 76.4775 89.988 76.6947 89.9677 76.9125C89.9227 77.7619 89.1127 77.9144 88.9327 78.045Z" fill="#25405D"/>
<path d="M64.5201 91.5476C65.7035 90.6931 66.5909 89.5109 67.065 88.1575C67.5391 86.8042 67.5775 85.3433 67.1752 83.9684C66.9277 83.2932 65.1951 81.1588 64.4301 82.5745C64.2276 82.923 64.4301 83.3586 64.5876 83.707C64.8681 84.3988 64.961 85.1486 64.8576 85.885C64.6939 86.9053 64.3189 87.8832 63.7551 88.7598C63.318 89.2852 62.9408 89.8548 62.6301 90.4586C62.5302 90.6598 62.5118 90.8898 62.5784 91.1035C62.6451 91.3171 62.7919 91.4989 62.9901 91.6129C63.2209 91.7563 63.4919 91.827 63.7658 91.8153C64.0398 91.8036 64.3033 91.7101 64.5201 91.5476V91.5476Z" fill="#25405D"/>
<path d="M529.994 125.261C529.684 125.57 529.436 125.931 529.26 126.326C529.093 126.74 529.013 127.182 529.023 127.626C529.033 128.07 529.133 128.508 529.318 128.915C529.503 129.322 529.769 129.689 530.101 129.996C530.432 130.303 530.823 130.544 531.251 130.705C530.972 132.937 530.675 135.152 530.395 137.367C525.953 136.744 521.42 137.384 517.347 139.21L513.346 133.191C514.199 131.987 514.793 130.63 515.093 129.2C515.231 128.486 515.178 127.749 514.939 127.06C514.701 126.37 514.285 125.751 513.731 125.261C512.952 124.794 512.067 124.52 511.154 124.461C510.24 124.402 509.326 124.56 508.49 124.922C506.839 125.412 505.354 126.323 504.193 127.56C503.624 128.189 503.224 128.944 503.029 129.758C502.834 130.572 502.85 131.42 503.075 132.227C504.001 134.983 507.774 135.964 510.569 134.966L514.342 141.222C510.581 144.645 508.006 149.11 506.97 154.005L503.32 153.616C502.883 151.181 501.328 148.543 498.795 148.374C495.773 148.222 494.027 151.485 494.027 154.292C493.921 155.335 494.132 156.385 494.635 157.314C495.138 158.242 495.91 159.008 496.856 159.517C499.319 160.481 502.184 158.198 502.429 155.645L507.005 156.287C506.418 160.118 507.155 164.029 509.102 167.413L503.966 170.203C503.532 169.83 503.021 169.551 502.467 169.385C501.912 169.219 501.328 169.169 500.752 169.239C500.176 169.31 499.623 169.499 499.129 169.793C498.635 170.088 498.211 170.481 497.887 170.947C497.621 171.447 497.472 171.998 497.449 172.56C497.426 173.122 497.531 173.682 497.756 174.201C497.98 174.72 498.32 175.185 498.75 175.563C499.18 175.941 499.69 176.224 500.245 176.391C500.816 176.493 501.402 176.469 501.962 176.322C502.522 176.175 503.04 175.908 503.479 175.542C503.918 175.175 504.267 174.718 504.499 174.204C504.732 173.689 504.842 173.131 504.822 172.57L510.272 169.188C512.119 171.54 514.459 173.487 517.137 174.903L515.635 178.082C515.061 178.057 514.49 178.158 513.962 178.378C513.435 178.597 512.965 178.928 512.589 179.348C512.213 179.767 511.939 180.264 511.789 180.8C511.639 181.336 511.616 181.898 511.722 182.445C511.895 182.975 512.186 183.463 512.574 183.874C512.961 184.285 513.436 184.609 513.967 184.825C514.497 185.041 515.069 185.142 515.643 185.122C516.218 185.102 516.781 184.962 517.294 184.71C517.777 184.404 518.189 184.003 518.504 183.534C518.818 183.065 519.028 182.537 519.12 181.985C519.212 181.433 519.184 180.869 519.038 180.328C518.892 179.787 518.631 179.281 518.272 178.843L519.74 176.087C522.546 177.197 525.547 177.771 528.579 177.778C529.254 179.478 529.752 181.24 530.063 183.036C529.098 183.258 528.191 183.671 527.4 184.251C526.61 184.83 525.952 185.562 525.469 186.401C525.014 187.261 524.795 188.22 524.835 189.186C524.875 190.152 525.172 191.091 525.696 191.913C526.355 192.774 527.221 193.465 528.221 193.925C529.22 194.385 530.321 194.6 531.426 194.551C533.021 194.57 534.583 194.104 535.89 193.218C537.197 192.332 538.183 191.071 538.71 189.614C538.908 188.884 538.947 188.122 538.826 187.377C538.705 186.632 538.425 185.919 538.005 185.284C537.585 184.648 537.033 184.104 536.385 183.685C535.737 183.266 535.006 182.982 534.238 182.85L532.876 177.169C536.197 176.32 539.255 174.701 541.785 172.452L547.898 177.524C547.322 178.328 547.064 179.305 547.174 180.278C547.283 181.25 547.751 182.152 548.492 182.817C549.264 183.45 550.212 183.846 551.218 183.954C552.223 184.063 553.238 183.879 554.135 183.425C555.018 182.951 555.777 182.287 556.352 181.483C556.928 180.68 557.304 179.759 557.454 178.792C557.576 178.21 557.574 177.61 557.447 177.028C557.321 176.447 557.074 175.896 556.72 175.411C555.078 173.466 551.899 174.159 549.471 175.039L543.881 170.085C546.54 166.645 548.117 162.535 548.423 158.249L555.41 158.08C555.386 159.121 555.75 160.136 556.437 160.938C557.124 161.741 558.086 162.276 559.148 162.447C560.21 162.617 561.3 162.412 562.217 161.867C563.135 161.323 563.819 160.476 564.144 159.483C564.464 158.374 564.555 157.214 564.411 156.071C564.268 154.928 563.892 153.823 563.305 152.821C562.806 151.918 561.971 151.231 560.97 150.899C559.969 150.566 558.875 150.613 557.908 151.029C557.272 151.527 556.748 152.146 556.367 152.846C555.985 153.547 555.755 154.315 555.689 155.104L548.457 155.357C548.135 152.078 547.067 148.908 545.331 146.075L550.571 142.372C551.536 143.057 552.724 143.385 553.917 143.294C555.11 143.204 556.231 142.701 557.074 141.879C557.917 141.056 558.426 139.968 558.51 138.812C558.594 137.656 558.247 136.509 557.531 135.581C556.815 134.652 555.778 134.003 554.609 133.752C553.441 133.501 552.218 133.664 551.163 134.213C550.109 134.761 549.292 135.657 548.863 136.739C548.434 137.821 548.42 139.015 548.824 140.106L543.584 143.775C540.852 140.721 537.177 138.598 533.103 137.722C533.557 135.439 534.029 133.174 534.5 130.959C534.965 130.946 535.422 130.839 535.841 130.644C536.261 130.45 536.633 130.172 536.935 129.83C537.236 129.487 537.459 129.087 537.591 128.655C537.722 128.223 537.758 127.77 537.697 127.323C537.523 126.45 537.068 125.652 536.396 125.044C535.724 124.437 534.871 124.051 533.959 123.942C533.237 123.843 532.502 123.91 531.812 124.14C531.123 124.369 530.5 124.753 529.994 125.261V125.261ZM516.159 178.336C516.159 178.336 516.159 178.336 516.159 178.42V178.336Z" fill="#EEA537"/>
<path d="M525.661 147.816C522.063 148.611 512.525 153.802 513.434 155.509C514.342 157.217 526.937 150.048 527.408 149.118C528.055 147.596 526.238 147.681 525.661 147.816Z" fill="#25405D"/>
<path d="M517.731 145.906C520.316 148.442 525.626 157.741 523.88 158.722C522.133 159.703 515.146 147.664 515.67 146.108C516.194 144.553 517.312 145.483 517.731 145.906Z" fill="#25405D"/>
<path d="M541.993 151.992C538.5 152.821 528.927 158.113 529.888 159.804C530.848 161.495 543.338 154.207 543.74 153.261C544.404 151.756 542.57 151.857 541.993 151.992Z" fill="#25405D"/>
<path d="M534.046 150.149C536.667 152.669 542.082 161.985 540.335 162.915C538.588 163.845 531.426 151.941 531.985 150.386C532.544 148.83 533.627 149.794 534.046 150.149Z" fill="#25405D"/>
<path d="M517.538 162.983C517.538 162.983 514.045 171.572 517.364 172.773C522.377 174.582 524.491 164.708 524.491 164.708L517.538 162.983Z" fill="#BF4F0F"/>
<path d="M533.644 166.601C533.644 166.601 516.612 161.529 516.263 162.729C515.913 163.93 533.888 168.529 534.674 167.497C535.181 166.804 534.36 166.703 533.644 166.601Z" fill="#25405D"/>
</svg>
