<svg xmlns="http://www.w3.org/2000/svg" xmlns:xlink="http://www.w3.org/1999/xlink" viewBox="0 0 635.65 610.2"><defs><style>.cls-1{isolation:isolate;}.cls-2{fill:#f0f0f0;}.cls-3{fill:url(#radial-gradient);}.cls-4{fill:#e7a350;}.cls-5{fill:#e7a450;opacity:0.6;mix-blend-mode:multiply;}.cls-6{fill:#efc087;opacity:0.2;mix-blend-mode:screen;}.cls-7{fill:url(#radial-gradient-2);}.cls-8{fill:url(#radial-gradient-3);}.cls-9{fill:url(#radial-gradient-4);}.cls-10{fill:url(#radial-gradient-5);}.cls-11{fill:url(#radial-gradient-6);}.cls-12{fill:url(#radial-gradient-7);}</style><radialGradient id="radial-gradient" cx="96.59" cy="857.98" r="96.59" gradientTransform="translate(0 -210.54) scale(1 0.86)" gradientUnits="userSpaceOnUse"><stop offset="0.28" stop-color="#e7a450"/><stop offset="0.41" stop-color="#edbb7d" stop-opacity="0.74"/><stop offset="0.57" stop-color="#f3d3ab" stop-opacity="0.48"/><stop offset="0.71" stop-color="#f8e6cf" stop-opacity="0.27"/><stop offset="0.83" stop-color="#fcf4e9" stop-opacity="0.12"/><stop offset="0.93" stop-color="#fefcf9" stop-opacity="0.03"/><stop offset="1" stop-color="#fff" stop-opacity="0"/></radialGradient><radialGradient id="radial-gradient-2" cx="220.37" cy="680.52" r="70.69" xlink:href="#radial-gradient"/><radialGradient id="radial-gradient-3" cx="412.4" cy="786.05" r="150.25" xlink:href="#radial-gradient"/><radialGradient id="radial-gradient-4" cx="463.57" cy="477.35" r="54.16" xlink:href="#radial-gradient"/><radialGradient id="radial-gradient-5" cx="95.53" cy="569.25" r="40.62" xlink:href="#radial-gradient"/><radialGradient id="radial-gradient-6" cx="255.88" cy="443.56" r="159.19" xlink:href="#radial-gradient"/><radialGradient id="radial-gradient-7" cx="253.79" cy="806.81" r="58.64" xlink:href="#radial-gradient"/></defs><title>asset web</title><g class="cls-1"><g id="Layer_1" data-name="Layer 1"><path class="cls-2" d="M459,222.2q13.2-19.09,38.5-42.16,18.56-16.86,27.27-28.38a42.25,42.25,0,0,0,8.71-26.14q0-20.79-16.58-32.89T472.76,80.55q-26.43,0-46.94,11a100.11,100.11,0,0,0-34.57,30.63l-68-39.91q23.61-36,63.8-55.65T482.32,6.91Q547,6.91,586,34.45t39.06,76.45q0,23.05-7.58,40.47A107.43,107.43,0,0,1,599,180.89Q588,193,570.57,208.71q-20.8,18.56-30.36,31.2t-9.55,30.63H445.78Q445.78,241.32,459,222.2Zm-9,174.54a48.42,48.42,0,0,1-15.45-36.26q0-21.35,15.17-35.69t38.79-14.34q23.61,0,38.79,14.34t15.17,35.69A48.43,48.43,0,0,1,527,396.74q-15.46,14.89-38.5,14.9T450,396.74Z"/><ellipse class="cls-3" cx="96.59" cy="527.15" rx="96.59" ry="83.05"/><path class="cls-4" d="M90.73,451.78H99.1a89.15,89.15,0,0,1,0-22.14H90.73A89.15,89.15,0,0,1,90.73,451.78Z"/><path class="cls-4" d="M65.32,460.83l7.25-4.18A88.92,88.92,0,0,1,61.5,437.47l-7.25,4.19A88.85,88.85,0,0,1,65.32,460.83Z"/><path class="cls-4" d="M47.84,481.38,52,474.12a88.92,88.92,0,0,1-19.18-11.07l-4.18,7.26A88.85,88.85,0,0,1,47.84,481.38Z"/><path class="cls-4" d="M43,507.91v-8.38a88.27,88.27,0,0,1-22.15,0v8.38A88.67,88.67,0,0,1,43,507.91Z"/><path class="cls-4" d="M52,533.32l-4.19-7.26a89.3,89.3,0,0,1-19.17,11.08l4.19,7.25A88.61,88.61,0,0,1,52,533.32Z"/><path class="cls-4" d="M72.57,550.8l-7.25-4.19a88.85,88.85,0,0,1-11.07,19.17L61.5,570A88.61,88.61,0,0,1,72.57,550.8Z"/><path class="cls-4" d="M99.11,555.66H90.73a89.15,89.15,0,0,1,0,22.14H99.1A88.67,88.67,0,0,1,99.11,555.66Z"/><path class="cls-4" d="M124.51,546.61l-7.25,4.18A88.92,88.92,0,0,1,128.33,570l7.25-4.19A88.85,88.85,0,0,1,124.51,546.61Z"/><path class="cls-4" d="M142,526.06l-4.19,7.26A88.68,88.68,0,0,1,157,544.39l4.19-7.26A88.68,88.68,0,0,1,142,526.06Z"/><path class="cls-4" d="M146.86,499.53v8.38a88.27,88.27,0,0,1,22.15,0v-8.38A88.19,88.19,0,0,1,146.86,499.53Z"/><path class="cls-4" d="M137.8,474.12l4.19,7.26a89.37,89.37,0,0,1,19.18-11.08L157,463.05A88.27,88.27,0,0,1,137.8,474.12Z"/><path class="cls-4" d="M117.26,456.64l7.25,4.19a89.26,89.26,0,0,1,11.07-19.17l-7.25-4.19A88.61,88.61,0,0,1,117.26,456.64Z"/><circle class="cls-4" cx="94.92" cy="503.72" r="58.93" transform="translate(-414.59 559.78) rotate(-85.61)"/><path class="cls-4" d="M153.84,503.72a58.93,58.93,0,1,1-90.37-49.83,57.9,57.9,0,0,1,11.3-5.57,59,59,0,0,1,79.07,55.4Z"/><path class="cls-5" d="M116.2,541.35a58.85,58.85,0,0,1-2.92,18.38,58.94,58.94,0,0,1-74.35-74.39,58.95,58.95,0,0,1,77.27,56Z"/><path class="cls-6" d="M153.84,503.72a58.45,58.45,0,0,1-9.09,31.44,58.92,58.92,0,0,1-81.28-81.27,57.9,57.9,0,0,1,11.3-5.57,59,59,0,0,1,79.07,55.4Z"/><path class="cls-6" d="M108.33,470a4.55,4.55,0,1,1-4.54-4.55A4.54,4.54,0,0,1,108.33,470Z"/><path class="cls-5" d="M142.07,513.44a4.87,4.87,0,1,1-4.87-4.87A4.87,4.87,0,0,1,142.07,513.44Z"/><path class="cls-5" d="M64.53,499.81a8.76,8.76,0,1,1-8.76-8.76A8.76,8.76,0,0,1,64.53,499.81Z"/><path class="cls-5" d="M114.17,488.13a6.82,6.82,0,1,1-6.82-6.81A6.82,6.82,0,0,1,114.17,488.13Z"/><path class="cls-5" d="M123.25,538.75a3.57,3.57,0,1,1-3.57-3.57A3.56,3.56,0,0,1,123.25,538.75Z"/><path class="cls-6" d="M80.1,472.89a7.79,7.79,0,1,1-7.78-7.79A7.78,7.78,0,0,1,80.1,472.89Z"/><path class="cls-5" d="M94.3,459a3.17,3.17,0,1,1-3.17-3.16A3.17,3.17,0,0,1,94.3,459Z"/><path class="cls-5" d="M135.94,476a3.39,3.39,0,1,1-3.39-3.38A3.39,3.39,0,0,1,135.94,476Z"/><path class="cls-6" d="M88.54,535.83A7.79,7.79,0,1,1,80.75,528,7.78,7.78,0,0,1,88.54,535.83Z"/><path class="cls-6" d="M145.11,488.13a3.69,3.69,0,1,1-3.69-3.69A3.69,3.69,0,0,1,145.11,488.13Z"/><ellipse class="cls-7" cx="220.37" cy="374.57" rx="70.69" ry="60.78"/><path class="cls-4" d="M216.08,319.41h6.13a64.66,64.66,0,0,1,0-16.21h-6.13A65.62,65.62,0,0,1,216.08,319.41Z"/><path class="cls-4" d="M197.48,326l5.31-3.06a64.56,64.56,0,0,1-8.1-14L189.38,312A65.14,65.14,0,0,1,197.48,326Z"/><path class="cls-4" d="M184.69,341.07l3.07-5.31a65.39,65.39,0,0,1-14-8.1l-3.06,5.3A65.18,65.18,0,0,1,184.69,341.07Z"/><path class="cls-4" d="M181.13,360.48v-6.13a64.66,64.66,0,0,1-16.21,0v6.13A65.53,65.53,0,0,1,181.13,360.48Z"/><path class="cls-4" d="M187.75,379.08l-3.06-5.31a64.73,64.73,0,0,1-14,8.1l3.06,5.31A65.14,65.14,0,0,1,187.75,379.08Z"/><path class="cls-4" d="M202.79,391.87l-5.31-3.06a64.73,64.73,0,0,1-8.1,14l5.31,3.06A64.73,64.73,0,0,1,202.79,391.87Z"/><path class="cls-4" d="M222.21,395.43h-6.13a65.62,65.62,0,0,1,0,16.21h6.13A64.66,64.66,0,0,1,222.21,395.43Z"/><path class="cls-4" d="M240.8,388.81l-5.31,3.06a65.18,65.18,0,0,1,8.11,14l5.3-3.06A65.56,65.56,0,0,1,240.8,388.81Z"/><path class="cls-4" d="M253.59,373.77l-3.06,5.31a65.14,65.14,0,0,1,14,8.1l3.07-5.31A64.56,64.56,0,0,1,253.59,373.77Z"/><path class="cls-4" d="M257.15,354.35v6.13a65.62,65.62,0,0,1,16.21,0v-6.13A64.66,64.66,0,0,1,257.15,354.35Z"/><path class="cls-4" d="M250.53,335.76l3.06,5.31a65,65,0,0,1,14-8.11l-3.07-5.3A65.14,65.14,0,0,1,250.53,335.76Z"/><path class="cls-4" d="M235.49,323,240.8,326a65.14,65.14,0,0,1,8.1-14l-5.3-3.07A65,65,0,0,1,235.49,323Z"/><path class="cls-4" d="M262.27,357.42a43.13,43.13,0,1,1-43.13-43.13A43.12,43.12,0,0,1,262.27,357.42Z"/><path class="cls-4" d="M262.26,357.42a43.09,43.09,0,0,1-2.58,14.74,42.08,42.08,0,0,1-4.07,8.27,43.13,43.13,0,1,1,6.65-23Z"/><path class="cls-5" d="M234.72,385a43.1,43.1,0,0,1-2.14,13.45A43.15,43.15,0,0,1,178.16,344a43.14,43.14,0,0,1,56.56,41Z"/><path class="cls-6" d="M262.26,357.42a43.09,43.09,0,0,1-2.58,14.74,42.08,42.08,0,0,1-4.07,8.27A43.13,43.13,0,0,1,196.12,321a43.12,43.12,0,0,1,66.14,36.47Z"/><path class="cls-6" d="M229,332.72a3.33,3.33,0,1,1-3.33-3.33A3.33,3.33,0,0,1,229,332.72Z"/><path class="cls-5" d="M253.65,364.53a3.56,3.56,0,1,1-3.56-3.56A3.56,3.56,0,0,1,253.65,364.53Z"/><path class="cls-5" d="M196.9,354.56a6.41,6.41,0,1,1-6.41-6.41A6.41,6.41,0,0,1,196.9,354.56Z"/><path class="cls-5" d="M233.23,346a5,5,0,1,1-5-5A5,5,0,0,1,233.23,346Z"/><circle class="cls-5" cx="237.27" cy="383.05" r="2.61"/><path class="cls-6" d="M208.3,334.85a5.7,5.7,0,1,1-5.7-5.69A5.7,5.7,0,0,1,208.3,334.85Z"/><path class="cls-5" d="M218.69,324.72a2.32,2.32,0,1,1-2.32-2.32A2.32,2.32,0,0,1,218.69,324.72Z"/><path class="cls-5" d="M249.16,337.15a2.48,2.48,0,1,1-2.48-2.48A2.48,2.48,0,0,1,249.16,337.15Z"/><path class="cls-6" d="M214.47,380.92a5.7,5.7,0,1,1-5.7-5.7A5.7,5.7,0,0,1,214.47,380.92Z"/><path class="cls-6" d="M255.87,346a2.7,2.7,0,1,1-2.7-2.7A2.69,2.69,0,0,1,255.87,346Z"/><ellipse class="cls-8" cx="412.4" cy="465.31" rx="150.25" ry="129.18"/><path class="cls-4" d="M403.28,348.07h13a137.9,137.9,0,0,1,0-34.45h-13A137.9,137.9,0,0,1,403.28,348.07Z"/><path class="cls-4" d="M363.76,362.15,375,355.64a138.26,138.26,0,0,1-17.22-29.83l-11.29,6.51A138.06,138.06,0,0,1,363.76,362.15Z"/><path class="cls-4" d="M336.57,394.1l6.52-11.28a137.68,137.68,0,0,1-29.84-17.22l-6.51,11.28A138.43,138.43,0,0,1,336.57,394.1Z"/><path class="cls-4" d="M329,435.38v-13a138.78,138.78,0,0,1-34.44,0v13A138.3,138.3,0,0,1,329,435.38Z"/><path class="cls-4" d="M343.08,474.9l-6.51-11.28a138.43,138.43,0,0,1-29.83,17.22l6.52,11.28A138,138,0,0,1,343.08,474.9Z"/><path class="cls-4" d="M375,502.09l-11.28-6.52a138.43,138.43,0,0,1-17.22,29.83l11.28,6.51A138,138,0,0,1,375,502.09Z"/><path class="cls-4" d="M416.31,509.65h-13a137.9,137.9,0,0,1,0,34.45h13A137.82,137.82,0,0,1,416.31,509.65Z"/><path class="cls-4" d="M455.84,495.57l-11.29,6.52a138,138,0,0,1,17.23,29.82l11.27-6.51A138,138,0,0,1,455.84,495.57Z"/><path class="cls-4" d="M483,463.61,476.5,474.9a138.09,138.09,0,0,1,29.84,17.22l6.51-11.28A137.75,137.75,0,0,1,483,463.61Z"/><path class="cls-4" d="M490.59,422.34v13a138.3,138.3,0,0,1,34.44,0v-13A138.3,138.3,0,0,1,490.59,422.34Z"/><path class="cls-4" d="M476.51,382.82,483,394.11a138.06,138.06,0,0,1,29.83-17.23l-6.51-11.28A137.85,137.85,0,0,1,476.51,382.82Z"/><path class="cls-4" d="M444.55,355.63l11.28,6.52a138.43,138.43,0,0,1,17.22-29.83l-11.27-6.51A138,138,0,0,1,444.55,355.63Z"/><path class="cls-4" d="M501.46,428.86a91.67,91.67,0,1,1-91.67-91.66A91.67,91.67,0,0,1,501.46,428.86Z"/><path class="cls-4" d="M501.45,428.86A91.6,91.6,0,0,1,496,460.19a90.52,90.52,0,0,1-8.64,17.58A91.66,91.66,0,1,1,360.87,351.35a90.12,90.12,0,0,1,17.59-8.66,91.73,91.73,0,0,1,123,86.17Z"/><path class="cls-5" d="M442.91,487.4A91.91,91.91,0,0,1,438.37,516,91.7,91.7,0,0,1,322.7,400.28,91.69,91.69,0,0,1,442.91,487.4Z"/><path class="cls-6" d="M501.45,428.86A91.6,91.6,0,0,1,496,460.19a90.52,90.52,0,0,1-8.64,17.58A91.67,91.67,0,0,1,360.87,351.35a90.12,90.12,0,0,1,17.59-8.66,91.73,91.73,0,0,1,123,86.17Z"/><path class="cls-6" d="M430.66,376.36a7.07,7.07,0,1,1-7.07-7.07A7.07,7.07,0,0,1,430.66,376.36Z"/><path class="cls-5" d="M483.14,444a7.57,7.57,0,1,1-7.57-7.57A7.57,7.57,0,0,1,483.14,444Z"/><path class="cls-5" d="M362.53,422.78a13.63,13.63,0,1,1-13.63-13.62A13.63,13.63,0,0,1,362.53,422.78Z"/><path class="cls-5" d="M439.74,404.62a10.6,10.6,0,1,1-10.6-10.6A10.59,10.59,0,0,1,439.74,404.62Z"/><path class="cls-5" d="M453.87,483.34a5.55,5.55,0,1,1-5.55-5.55A5.54,5.54,0,0,1,453.87,483.34Z"/><path class="cls-6" d="M386.75,380.9a12.11,12.11,0,1,1-12.11-12.11A12.11,12.11,0,0,1,386.75,380.9Z"/><path class="cls-5" d="M408.84,359.37a4.93,4.93,0,1,1-4.93-4.93A4.93,4.93,0,0,1,408.84,359.37Z"/><path class="cls-5" d="M473.6,385.78a5.27,5.27,0,1,1-5.26-5.27A5.26,5.26,0,0,1,473.6,385.78Z"/><path class="cls-6" d="M399.87,478.8a12.11,12.11,0,1,1-12.11-12.11A12.11,12.11,0,0,1,399.87,478.8Z"/><path class="cls-6" d="M487.87,404.62a5.74,5.74,0,1,1-5.74-5.74A5.74,5.74,0,0,1,487.87,404.62Z"/><ellipse class="cls-9" cx="463.57" cy="199.88" rx="54.16" ry="46.57"/><path class="cls-4" d="M460.28,157.62H465a50.6,50.6,0,0,1,0-12.42h-4.69A49.64,49.64,0,0,1,460.28,157.62Z"/><path class="cls-4" d="M446,162.69l4.07-2.35a49.39,49.39,0,0,1-6.21-10.75l-4.07,2.35A49.86,49.86,0,0,1,446,162.69Z"/><path class="cls-4" d="M436.23,174.21l2.35-4.06a50.11,50.11,0,0,1-10.76-6.21L425.48,168A50.7,50.7,0,0,1,436.23,174.21Z"/><path class="cls-4" d="M433.5,189.09v-4.7a49.56,49.56,0,0,1-12.41,0v4.7A49.56,49.56,0,0,1,433.5,189.09Z"/><path class="cls-4" d="M438.58,203.34l-2.35-4.07a49.86,49.86,0,0,1-10.75,6.21l2.35,4.06A49.76,49.76,0,0,1,438.58,203.34Z"/><path class="cls-4" d="M450.1,213.14,446,210.79a49.62,49.62,0,0,1-6.21,10.75l4.07,2.35A49.62,49.62,0,0,1,450.1,213.14Z"/><path class="cls-4" d="M465,215.86h-4.69a49.64,49.64,0,0,1,0,12.42H465A50.6,50.6,0,0,1,465,215.86Z"/><path class="cls-4" d="M479.22,210.79l-4.07,2.35a49.62,49.62,0,0,1,6.21,10.75l4.07-2.35A49.62,49.62,0,0,1,479.22,210.79Z"/><path class="cls-4" d="M489,199.27l-2.35,4.07a50.07,50.07,0,0,1,10.76,6.2l2.34-4.06A49.86,49.86,0,0,1,489,199.27Z"/><path class="cls-4" d="M491.75,184.39v4.7a49.56,49.56,0,0,1,12.41,0v-4.7A49.56,49.56,0,0,1,491.75,184.39Z"/><path class="cls-4" d="M486.67,170.14l2.35,4.07A50.28,50.28,0,0,1,499.77,168l-2.34-4.06A49.65,49.65,0,0,1,486.67,170.14Z"/><path class="cls-4" d="M475.15,160.34l4.07,2.35a49.62,49.62,0,0,1,6.21-10.75l-4.07-2.35A49.39,49.39,0,0,1,475.15,160.34Z"/><circle class="cls-4" cx="462.62" cy="186.74" r="33.04" transform="translate(250.06 638.08) rotate(-86.76)"/><path class="cls-4" d="M495.66,186.74A33,33,0,1,1,445,158.8a32.19,32.19,0,0,1,6.34-3.12,33.06,33.06,0,0,1,44.33,31.06Z"/><path class="cls-5" d="M474.56,207.84a32.88,32.88,0,0,1-1.64,10.31,33.06,33.06,0,0,1-41.69-41.71,33,33,0,0,1,43.33,31.4Z"/><path class="cls-6" d="M495.66,186.74a32.68,32.68,0,0,1-5.09,17.63A33,33,0,0,1,445,158.8a32.19,32.19,0,0,1,6.34-3.12,33.06,33.06,0,0,1,44.33,31.06Z"/><path class="cls-6" d="M470.15,167.81a2.55,2.55,0,1,1-2.55-2.54A2.55,2.55,0,0,1,470.15,167.81Z"/><path class="cls-5" d="M489.06,192.19a2.73,2.73,0,1,1-2.72-2.73A2.72,2.72,0,0,1,489.06,192.19Z"/><path class="cls-5" d="M445.59,184.55a4.92,4.92,0,1,1-4.91-4.91A4.91,4.91,0,0,1,445.59,184.55Z"/><path class="cls-5" d="M473.42,178a3.82,3.82,0,1,1-3.82-3.82A3.82,3.82,0,0,1,473.42,178Z"/><circle class="cls-5" cx="476.51" cy="206.38" r="2"/><path class="cls-6" d="M454.32,169.45a4.37,4.37,0,1,1-4.37-4.36A4.37,4.37,0,0,1,454.32,169.45Z"/><circle class="cls-5" cx="460.5" cy="161.69" r="1.78"/><path class="cls-5" d="M485.63,171.21a1.9,1.9,0,1,1-1.9-1.9A1.9,1.9,0,0,1,485.63,171.21Z"/><path class="cls-6" d="M459.05,204.74a4.37,4.37,0,1,1-4.37-4.36A4.37,4.37,0,0,1,459.05,204.74Z"/><path class="cls-6" d="M490.77,178a2.07,2.07,0,1,1-2.07-2.07A2.07,2.07,0,0,1,490.77,178Z"/><ellipse class="cls-10" cx="95.53" cy="278.9" rx="40.62" ry="34.92"/><path class="cls-4" d="M93.07,247.21h3.52a37.19,37.19,0,0,1,0-9.31H93.07A37.19,37.19,0,0,1,93.07,247.21Z"/><path class="cls-4" d="M82.38,251l3.05-1.76a37,37,0,0,1-4.65-8.06l-3,1.76A37,37,0,0,1,82.38,251Z"/><path class="cls-4" d="M75,259.65l1.76-3A37,37,0,0,1,68.73,252L67,255A37.38,37.38,0,0,1,75,259.65Z"/><path class="cls-4" d="M73,270.81v-3.52a37.19,37.19,0,0,1-9.31,0v3.52A37.19,37.19,0,0,1,73,270.81Z"/><path class="cls-4" d="M76.79,281.49,75,278.44A37.42,37.42,0,0,1,67,283.1l1.76,3A37.42,37.42,0,0,1,76.79,281.49Z"/><path class="cls-4" d="M85.43,288.84l-3.05-1.76a37.27,37.27,0,0,1-4.65,8.07l3,1.76A37.27,37.27,0,0,1,85.43,288.84Z"/><path class="cls-4" d="M96.59,290.89H93.07a37.19,37.19,0,0,1,0,9.31h3.52A37.19,37.19,0,0,1,96.59,290.89Z"/><path class="cls-4" d="M107.27,287.08l-3,1.76a37.73,37.73,0,0,1,4.66,8.07l3.05-1.76A37.73,37.73,0,0,1,107.27,287.08Z"/><path class="cls-4" d="M114.62,278.44l-1.76,3.05a37.73,37.73,0,0,1,8.07,4.66l1.76-3A37.73,37.73,0,0,1,114.62,278.44Z"/><path class="cls-4" d="M116.67,267.29v3.52a37.19,37.19,0,0,1,9.31,0v-3.52A37.19,37.19,0,0,1,116.67,267.29Z"/><path class="cls-4" d="M112.86,256.6l1.76,3a37.69,37.69,0,0,1,8.07-4.65L120.93,252A37.27,37.27,0,0,1,112.86,256.6Z"/><path class="cls-4" d="M104.22,249.25l3,1.77a37.25,37.25,0,0,1,4.66-8.07l-3.05-1.76A37.42,37.42,0,0,1,104.22,249.25Z"/><circle class="cls-4" cx="94.83" cy="269.05" r="24.78" transform="translate(-181.12 341.36) rotate(-85.27)"/><path class="cls-4" d="M119.61,269.05a24.81,24.81,0,1,1-24.78-24.78A24.77,24.77,0,0,1,119.61,269.05Z"/><path class="cls-5" d="M103.78,284.87a24.68,24.68,0,0,1-1.23,7.73,24.8,24.8,0,0,1-31.27-31.28,24.79,24.79,0,0,1,32.5,23.55Z"/><path class="cls-6" d="M119.61,269.05a24.73,24.73,0,0,1-3.82,13.22A24.78,24.78,0,0,1,81.6,248.09a24.79,24.79,0,0,1,38,21Z"/><path class="cls-6" d="M100.47,254.85a1.91,1.91,0,1,1-1.91-1.9A1.91,1.91,0,0,1,100.47,254.85Z"/><path class="cls-5" d="M114.66,273.14a2,2,0,1,1-2-2.05A2,2,0,0,1,114.66,273.14Z"/><path class="cls-5" d="M82.05,267.41a3.69,3.69,0,1,1-3.68-3.69A3.68,3.68,0,0,1,82.05,267.41Z"/><path class="cls-5" d="M102.92,262.49a2.87,2.87,0,1,1-2.86-2.86A2.86,2.86,0,0,1,102.92,262.49Z"/><circle class="cls-5" cx="105.24" cy="283.78" r="1.5"/><path class="cls-6" d="M88.6,256.08a3.28,3.28,0,1,1-3.28-3.27A3.28,3.28,0,0,1,88.6,256.08Z"/><path class="cls-5" d="M94.57,250.26a1.34,1.34,0,1,1-1.33-1.33A1.33,1.33,0,0,1,94.57,250.26Z"/><path class="cls-5" d="M112.08,257.4a1.43,1.43,0,1,1-1.43-1.42A1.42,1.42,0,0,1,112.08,257.4Z"/><path class="cls-6" d="M92.15,282.55a3.28,3.28,0,1,1-3.28-3.28A3.27,3.27,0,0,1,92.15,282.55Z"/><path class="cls-6" d="M115.93,262.49a1.55,1.55,0,1,1-1.55-1.55A1.55,1.55,0,0,1,115.93,262.49Z"/><ellipse class="cls-11" cx="255.88" cy="170.83" rx="159.19" ry="136.87"/><path class="cls-4" d="M246.22,46.62H260a146.57,146.57,0,0,1,0-36.49h-13.8A146.57,146.57,0,0,1,246.22,46.62Z"/><path class="cls-4" d="M204.35,61.54l12-6.9A146.52,146.52,0,0,1,198.05,23l-12,6.91A146.69,146.69,0,0,1,204.35,61.54Z"/><path class="cls-4" d="M175.54,95.4l6.9-12a146.24,146.24,0,0,1-31.6-18.24l-6.9,12A146.69,146.69,0,0,1,175.54,95.4Z"/><path class="cls-4" d="M167.52,139.12v-13.8a146.57,146.57,0,0,1-36.49,0v13.8A146.57,146.57,0,0,1,167.52,139.12Z"/><path class="cls-4" d="M182.44,181l-6.9-12a146.69,146.69,0,0,1-31.6,18.25l6.9,12A146.24,146.24,0,0,1,182.44,181Z"/><path class="cls-4" d="M216.3,209.8l-12-6.9a146.69,146.69,0,0,1-18.25,31.6l12,6.9A146.24,146.24,0,0,1,216.3,209.8Z"/><path class="cls-4" d="M260,217.82h-13.8a146.57,146.57,0,0,1,0,36.49H260A146.57,146.57,0,0,1,260,217.82Z"/><path class="cls-4" d="M301.9,202.9l-12,6.9a146.28,146.28,0,0,1,18.25,31.6l11.95-6.9A146.24,146.24,0,0,1,301.9,202.9Z"/><path class="cls-4" d="M330.71,169l-6.91,12a146,146,0,0,1,31.6,18.24l6.9-12A146.39,146.39,0,0,1,330.71,169Z"/><path class="cls-4" d="M338.72,125.31v13.81a146.57,146.57,0,0,1,36.49,0v-13.8A146.09,146.09,0,0,1,338.72,125.31Z"/><path class="cls-4" d="M323.8,83.44l6.9,12a146.28,146.28,0,0,1,31.6-18.25l-6.9-12A146.24,146.24,0,0,1,323.8,83.44Z"/><path class="cls-4" d="M289.94,54.63l12,6.91a146.65,146.65,0,0,1,18.24-31.6L308.19,23A145.81,145.81,0,0,1,289.94,54.63Z"/><path class="cls-4" d="M350.23,132.22A97.11,97.11,0,1,1,253.12,35.1,97.11,97.11,0,0,1,350.23,132.22Z"/><path class="cls-4" d="M350.23,132.22A97.11,97.11,0,1,1,201.29,50.09a95.68,95.68,0,0,1,18.63-9.17,97.18,97.18,0,0,1,130.31,91.3Z"/><path class="cls-5" d="M288.2,194.24a97.17,97.17,0,0,1-4.81,30.28A97.14,97.14,0,0,1,160.85,101.93,97.16,97.16,0,0,1,288.2,194.24Z"/><path class="cls-6" d="M350.23,132.22a96.6,96.6,0,0,1-15,51.82,97.12,97.12,0,0,1-134-133.95,95.68,95.68,0,0,1,18.63-9.17,97.18,97.18,0,0,1,130.31,91.3Z"/><path class="cls-6" d="M275.22,76.59a7.49,7.49,0,1,1-7.48-7.48A7.48,7.48,0,0,1,275.22,76.59Z"/><path class="cls-5" d="M330.83,148.24a8,8,0,1,1-8-8A8,8,0,0,1,330.83,148.24Z"/><path class="cls-5" d="M203,125.78a14.44,14.44,0,1,1-14.43-14.43A14.43,14.43,0,0,1,203,125.78Z"/><path class="cls-5" d="M284.85,106.53A11.23,11.23,0,1,1,273.62,95.3,11.23,11.23,0,0,1,284.85,106.53Z"/><circle class="cls-5" cx="293.94" cy="189.94" r="5.88"/><path class="cls-6" d="M228.71,81.4a12.84,12.84,0,1,1-12.84-12.83A12.84,12.84,0,0,1,228.71,81.4Z"/><path class="cls-5" d="M252.11,58.59a5.23,5.23,0,1,1-5.22-5.22A5.22,5.22,0,0,1,252.11,58.59Z"/><path class="cls-5" d="M320.72,86.57A5.58,5.58,0,1,1,315.15,81,5.57,5.57,0,0,1,320.72,86.57Z"/><path class="cls-6" d="M242.61,185.13a12.84,12.84,0,1,1-12.83-12.83A12.83,12.83,0,0,1,242.61,185.13Z"/><path class="cls-6" d="M335.84,106.53a6.08,6.08,0,1,1-6.08-6.08A6.08,6.08,0,0,1,335.84,106.53Z"/><ellipse class="cls-12" cx="253.79" cy="483.16" rx="58.64" ry="50.42"/><path class="cls-4" d="M250.23,437.4h5.09a53,53,0,0,1,0-13.44h-5.09A54,54,0,0,1,250.23,437.4Z"/><path class="cls-4" d="M234.81,442.9l4.4-2.55a53.56,53.56,0,0,1-6.72-11.64l-4.41,2.54A54.08,54.08,0,0,1,234.81,442.9Z"/><path class="cls-4" d="M224.19,455.37l2.55-4.41a53.56,53.56,0,0,1-11.64-6.72l-2.55,4.41A53.33,53.33,0,0,1,224.19,455.37Z"/><path class="cls-4" d="M221.24,471.47v-5.08a54,54,0,0,1-13.44,0v5.08A54,54,0,0,1,221.24,471.47Z"/><path class="cls-4" d="M226.74,486.9l-2.54-4.4a54.46,54.46,0,0,1-11.65,6.72l2.55,4.4A53.56,53.56,0,0,1,226.74,486.9Z"/><path class="cls-4" d="M239.21,497.51l-4.4-2.54a54,54,0,0,1-6.73,11.64l4.41,2.54A53.56,53.56,0,0,1,239.21,497.51Z"/><path class="cls-4" d="M255.32,500.46h-5.09a54.05,54.05,0,0,1,0,13.45h5.09A53,53,0,0,1,255.32,500.46Z"/><path class="cls-4" d="M270.74,495l-4.4,2.54a54.39,54.39,0,0,1,6.72,11.64l4.4-2.54A54,54,0,0,1,270.74,495Z"/><path class="cls-4" d="M281.35,482.5l-2.54,4.4a53.56,53.56,0,0,1,11.64,6.72l2.54-4.4A54.39,54.39,0,0,1,281.35,482.5Z"/><path class="cls-4" d="M284.31,466.39v5.08a54.05,54.05,0,0,1,13.45,0v-5.08A54,54,0,0,1,284.31,466.39Z"/><path class="cls-4" d="M278.81,451l2.54,4.41A54,54,0,0,1,293,448.64l-2.54-4.4A53.56,53.56,0,0,1,278.81,451Z"/><path class="cls-4" d="M266.34,440.35l4.4,2.55a54,54,0,0,1,6.72-11.65l-4.4-2.54A54.39,54.39,0,0,1,266.34,440.35Z"/><path class="cls-4" d="M288.55,468.93a35.78,35.78,0,1,1-35.78-35.77A35.77,35.77,0,0,1,288.55,468.93Z"/><path class="cls-4" d="M288.54,468.93a35.66,35.66,0,0,1-2.14,12.23A35.23,35.23,0,0,1,283,488a35.77,35.77,0,1,1-49.35-49.34,35.27,35.27,0,0,1,6.86-3.38,35.81,35.81,0,0,1,48,33.63Z"/><path class="cls-5" d="M265.7,491.78a35.77,35.77,0,0,1-1.78,11.15,35.78,35.78,0,0,1-45.14-45.15,35.78,35.78,0,0,1,46.92,34Z"/><path class="cls-6" d="M288.54,468.93a35.66,35.66,0,0,1-2.14,12.23A35.23,35.23,0,0,1,283,488a35.78,35.78,0,0,1-49.35-49.34,35.27,35.27,0,0,1,6.86-3.38,35.81,35.81,0,0,1,48,33.63Z"/><path class="cls-6" d="M260.91,448.44a2.76,2.76,0,1,1-2.75-2.76A2.76,2.76,0,0,1,260.91,448.44Z"/><path class="cls-5" d="M281.4,474.83a3,3,0,1,1-3-2.95A3,3,0,0,1,281.4,474.83Z"/><path class="cls-5" d="M234.33,466.56a5.32,5.32,0,1,1-5.32-5.32A5.32,5.32,0,0,1,234.33,466.56Z"/><path class="cls-5" d="M264.46,459.47a4.14,4.14,0,1,1-4.14-4.14A4.14,4.14,0,0,1,264.46,459.47Z"/><path class="cls-5" d="M270,490.19a2.17,2.17,0,1,1-2.16-2.16A2.17,2.17,0,0,1,270,490.19Z"/><path class="cls-6" d="M243.78,450.21a4.73,4.73,0,1,1-4.73-4.72A4.73,4.73,0,0,1,243.78,450.21Z"/><path class="cls-5" d="M252.4,441.81a1.93,1.93,0,1,1-1.92-1.92A1.92,1.92,0,0,1,252.4,441.81Z"/><path class="cls-5" d="M277.68,452.12a2.06,2.06,0,1,1-2.06-2.06A2.05,2.05,0,0,1,277.68,452.12Z"/><path class="cls-6" d="M248.9,488.42a4.73,4.73,0,1,1-4.73-4.72A4.73,4.73,0,0,1,248.9,488.42Z"/><path class="cls-6" d="M283.24,459.47a2.24,2.24,0,1,1-2.24-2.24A2.24,2.24,0,0,1,283.24,459.47Z"/></g></g></svg>